<svg xmlns="http://www.w3.org/2000/svg" width="27" height="33" fill="none" viewBox="0 0 27 33">
  <path fill="#F8F9FA" d="M25.071 2.059H1.923C.862 2.059 0 2.965 0 4.078V28.04c0 1.113.862 2.019 1.923 2.019H25.07c1.061 0 1.929-.906 1.929-2.019V4.078c0-1.113-.868-2.02-1.929-2.02Zm-16.91 24H4.157V12.696h4.008V26.06H8.16ZM6.158 10.87c-1.283 0-2.32-1.08-2.32-2.406 0-1.325 1.037-2.406 2.32-2.406 1.278 0 2.32 1.081 2.32 2.406 0 1.331-1.036 2.406-2.32 2.406Zm17.003 15.19h-4.002v-6.5c0-1.55-.03-3.544-2.08-3.544-2.084 0-2.404 1.688-2.404 3.431v6.613h-4.002V12.696h3.84v1.825h.054c.536-1.05 1.844-2.156 3.79-2.156 4.05 0 4.804 2.769 4.804 6.369v7.325Z"/>
</svg>
