<svg xmlns="http://www.w3.org/2000/svg" width="235" height="64" viewBox="0 0 1830 500">
  <path d="m0 124.977 217.945 125.008v50.002L43.588 199.982v50.003L217.945 349.99V500L0 374.992V324.99l174.354 100.005v-50.003L0 274.984ZM217.887 0l218 124.977v250.012L381.4 406.243V156.227L163.455 31.22ZM108.916 62.504l218 124.977-.003 250.012-54.484 31.254V218.73L54.484 93.723Z" style="fill:#f89a57;"/>
  <path d="M598.764 132.747c-12.166 2.534-27.626 10.645-35.863 18.755-16.475 16.22-21.29 41.566-11.786 62.222 8.11 17.995 27.626 30.287 69.318 44.1 13.687 4.562 27.246 9.504 30.16 11.025 7.35 3.675 15.081 10.898 18.122 16.98 5.196 10.012 2.662 28.007-5.069 36.624-6.336 7.223-19.262 12.166-34.469 13.18-33.201 2.28-57.532-12.926-60.447-37.638l-.76-6.336h-29.147l.76 7.984c2.408 26.358 23.951 48.028 56.393 56.899 14.32 3.928 42.579 3.928 56.392 0 34.85-9.884 52.717-34.216 48.155-65.516-3.928-27.12-23.824-44.48-66.657-57.787-30.414-9.377-39.411-13.433-47.902-21.036-7.35-6.59-10.01-12.546-10.01-22.177 0-9.25 3.801-18.502 9.63-24.077 2.028-1.901 7.097-4.943 11.279-6.843 10.011-4.563 29.78-5.703 42.452-2.535 18.882 4.816 31.681 19.896 31.681 37.13v4.182h29.147v-5.576c0-19.642-16.347-42.833-37.384-53.224-16.474-7.984-43.72-10.772-63.995-6.336zM1703.8 133.254c-3.422 3.421-3.168 7.857.38 11.151 5.576 5.196 13.56 2.028 13.56-5.322 0-7.603-8.618-11.152-13.94-5.83zM1508.644 244.771V356.29h7.604V272.904l15.587-14.32c8.49-7.984 16.727-15.46 18.121-16.727 2.661-2.282 3.042-1.901 53.731 56.138l50.944 58.294h5.069c4.688 0 4.942-.127 3.421-2.155-1.014-1.267-23.95-27.88-51.197-59.307-27.119-31.427-50.182-58.04-51.196-59.307-1.648-2.154 2.154-6.21 47.141-51.323 26.993-26.992 49.043-49.423 49.043-50.056 0-.507-2.408-.887-5.45-.887h-5.322l-64.63 64.883-64.629 64.756-.38-64.756-.253-64.883h-7.604zM1778.567 168.103v22.177h-30.414v8.87h30.414v62.982c0 38.905.507 65.897 1.394 70.713 3.548 20.402 16.981 29.273 40.805 26.738l8.617-1.013-.38-3.802-.38-3.929-11.405.254c-12.673.253-17.235-.887-22.557-5.956-6.97-6.59-7.223-9.758-7.223-80.977v-65.01h36.75v-8.87h-36.75v-44.354H1778.567zM745.764 170.637v19.643H715.35v22.81h30.414v58.04c0 66.15.127 67.29 9.25 77.175 2.915 3.295 7.73 6.97 10.646 8.237 7.35 3.295 19.515 4.182 30.54 2.281l9.124-1.52v-12.04c0-10.137-.253-11.912-1.9-11.278-1.014.38-4.563 1.014-7.858 1.394-8.363 1.14-15.333-1.394-19.008-6.843l-2.915-4.309V213.09h30.414v-22.81h-30.414v-39.285h-27.88ZM1133.54 170.637v19.643h-30.414v22.81h30.287l.38 59.814.38 59.94 3.042 6.717c7.477 16.474 24.331 23.19 47.902 19.135l7.984-1.394v-23.317l-7.857 1.14c-9.758 1.395-16.601-.633-20.53-5.829-2.534-3.548-2.66-5.069-3.041-59.94l-.38-56.266h30.54v-22.81h-30.413v-39.285h-27.88zM883.893 189.773c-24.584 5.195-46.888 25.471-46.888 42.58v4.815h13.94c13.56 0 13.94-.127 13.94-2.915 0-4.815 5.576-12.8 11.785-16.981 11.405-7.73 30.287-8.744 43.086-2.408 10.899 5.323 15.968 15.207 16.094 31.301v9.631l-24.964.76c-20.656.507-26.74 1.141-34.596 3.422-19.262 5.576-32.188 15.08-38.905 28.893-3.294 6.59-3.548 8.364-3.548 21.163 0 12.673.38 14.573 3.548 21.163 6.59 13.433 22.05 24.585 38.145 27.5 20.022 3.674 36.623-.38 53.73-13.053 6.844-5.07 7.858-5.45 7.858-3.168 0 1.394.633 5.069 1.393 8.237l1.394 5.576h15.207c15.08 0 15.08 0 14.193-2.915-4.562-14.32-4.688-15.46-5.575-70.586-.507-33.075-1.394-56.645-2.155-59.053-4.308-12.42-14.573-23.824-25.725-28.893-15.207-6.843-34.976-8.744-51.957-5.07zm51.957 103.153c0 11.912-.507 17.615-1.774 20.023-2.915 5.449-12.165 13.686-19.769 17.615-6.336 3.168-8.11 3.548-20.402 3.548-12.673 0-13.687-.254-19.643-3.802-14.066-8.744-17.234-28.513-6.59-40.678 8.491-9.631 20.783-12.926 48.916-13.053l19.262-.127zM1062.955 189.52c-8.364 2.66-16.22 7.856-21.036 13.686l-4.436 5.322-.887-9.124-1.014-9.124h-26.232V356.289h27.88v-59.307c0-65.77-.507-61.588 8.87-70.966 8.11-8.237 20.91-12.039 35.863-10.772l7.224.634v-12.672c0-8.364-.507-13.053-1.521-13.687-2.788-1.774-19.389-1.774-24.711 0zM1274.965 189.773c-17.615 4.308-36.497 19.389-45.368 36.623-8.11 15.714-10.391 26.232-10.391 48.789-.127 22.303 1.52 30.287 8.87 45.367 8.364 17.108 23.698 30.034 42.96 36.117 7.223 2.28 11.785 2.788 24.711 2.66 13.687 0 17.108-.506 25.092-3.294 5.069-1.774 11.912-5.069 15.333-7.223 6.463-4.182 20.403-17.995 20.403-20.276 0-.76-3.548-4.182-7.857-7.604l-7.984-6.209-7.096 6.716c-8.617 8.237-17.235 12.673-28.26 14.574-25.978 4.562-48.915-10.899-55.885-37.637-1.014-3.929-1.9-9.378-1.9-12.04v-4.815h111.516v-13.686c-.126-50.436-25.471-80.343-67.797-79.963-4.816 0-12.165.887-16.347 1.9zm34.342 25.345c7.223 3.421 12.926 9.757 16.6 18.375 2.662 6.21 5.323 17.234 5.323 22.05v3.168h-83.511l.76-4.182c1.52-8.364 5.83-19.262 9.885-25.598 11.151-16.728 32.695-22.557 50.943-13.813zM1447.183 189.393c-9.124 3.041-15.46 6.97-20.656 12.926l-5.07 5.702-.76-3.928c-.38-2.155-.76-6.21-.76-8.871v-4.942h-26.612V356.289h27.88V237.548l3.928-5.83c4.309-6.59 13.053-12.925 20.656-15.08 2.915-.76 10.138-1.267 16.347-1.267l11.025.127v-12.546c0-8.11-.506-12.799-1.52-13.433-2.788-1.774-19.262-1.774-24.458-.126zM1706.334 273.284v83.005h7.604V190.28h-7.604z"/>
</svg>
