<svg xmlns="http://www.w3.org/2000/svg" width="184" height="51" fill="none" viewBox="0 0 184 51">
  <g clip-path="url(#a)">
    <path fill="#F8F9FA" d="m0 12.556 21.907 12.501v5l-17.526-10v5l17.526 10V50.06L0 37.558v-5l17.525 10v-5L0 27.558V12.555ZM21.901.06l21.913 12.498v25l-5.477 3.126V15.681L16.43 3.181 21.9.059ZM10.948 6.31 32.86 18.807v25.001l-5.476 3.126V21.932L5.477 9.432l5.47-3.123Zm49.238 7.024c-1.223.253-2.777 1.064-3.605 1.875-1.656 1.622-2.14 4.157-1.185 6.222.815 1.8 2.777 3.029 6.968 4.41 1.375.456 2.738.95 3.031 1.103.739.367 1.516 1.09 1.822 1.698.522 1.001.267 2.8-.51 3.662-.637.722-1.936 1.217-3.464 1.318-3.338.228-5.783-1.292-6.076-3.764l-.077-.633h-2.93l.077.798c.242 2.636 2.407 4.803 5.668 5.69 1.44.393 4.28.393 5.669 0 3.503-.988 5.299-3.422 4.84-6.552-.395-2.712-2.395-4.448-6.7-5.778-3.057-.938-3.962-1.343-4.815-2.104-.739-.659-1.006-1.254-1.006-2.218 0-.924.382-1.85.968-2.407.204-.19.713-.494 1.134-.684 1.006-.457 2.993-.57 4.267-.254 1.898.482 3.184 1.99 3.184 3.713v.418h2.93v-.557c0-1.965-1.643-4.284-3.758-5.323-1.656-.798-4.394-1.077-6.432-.633Zm111.074.05c-.344.342-.319.786.038 1.115.56.52 1.363.203 1.363-.532a.811.811 0 0 0-1.401-.583Zm-19.617 11.152v11.152h.765v-8.339l1.566-1.432c.854-.798 1.682-1.546 1.822-1.672.267-.229.306-.19 5.401 5.613l5.12 5.83h.51c.471 0 .497-.013.344-.216-.102-.126-2.407-2.788-5.146-5.93-2.726-3.143-5.044-5.804-5.146-5.931-.166-.216.216-.621 4.738-5.132 2.713-2.7 4.93-4.943 4.93-5.006 0-.05-.242-.089-.548-.089h-.535l-6.496 6.489-6.497 6.475-.038-6.475-.025-6.489h-.765v11.152Zm27.132-7.667v2.218h-3.057v.887h3.057v6.298c0 3.89.051 6.59.14 7.071.357 2.04 1.707 2.928 4.102 2.674l.866-.101-.038-.38-.038-.393-1.147.025c-1.274.026-1.732-.088-2.267-.595-.701-.66-.726-.976-.726-8.098v-6.501h3.694v-.887h-3.694v-4.435h-.892v2.217Zm-103.814.254v1.964h-3.057v2.28h3.058v5.805c0 6.615.012 6.729.93 7.717.292.33.776.697 1.07.824.738.33 1.96.418 3.07.228l.916-.152v-1.204c0-1.014-.025-1.191-.19-1.128-.103.038-.46.102-.79.14-.841.114-1.542-.14-1.911-.684l-.293-.431V21.368h3.057v-2.281h-3.057v-3.929H74.96v1.965Zm38.978 0v1.964h-3.057v2.28h3.045l.038 5.982.038 5.994.306.672c.751 1.647 2.445 2.319 4.815 1.913l.802-.139v-2.332l-.79.114c-.98.14-1.668-.063-2.063-.582-.255-.355-.268-.507-.306-5.994l-.038-5.627h3.07v-2.281h-3.057v-3.929h-2.803v1.965Zm-25.093 1.913c-2.471.52-4.713 2.547-4.713 4.258v.482h1.4c1.364 0 1.402-.013 1.402-.292 0-.481.56-1.28 1.185-1.698 1.146-.773 3.044-.874 4.33-.24 1.096.532 1.606 1.52 1.618 3.13v.963l-2.51.076c-2.075.05-2.687.114-3.477.342-1.936.557-3.235 1.508-3.91 2.889-.331.659-.357.836-.357 2.116 0 1.268.039 1.458.357 2.117.662 1.343 2.216 2.458 3.834 2.75 2.013.367 3.681-.038 5.4-1.306.689-.507.79-.545.79-.316 0 .139.064.506.14.823l.14.558h1.53c1.515 0 1.515 0 1.426-.292-.459-1.432-.471-1.546-.56-7.058-.051-3.308-.14-5.665-.217-5.906-.433-1.242-1.465-2.382-2.586-2.889-1.528-.684-3.515-.874-5.222-.507Zm5.222 10.316c0 1.19-.05 1.761-.178 2.002-.293.545-1.223 1.368-1.987 1.761-.637.317-.815.355-2.05.355-1.275 0-1.377-.025-1.975-.38-1.414-.875-1.733-2.851-.663-4.068.854-.963 2.09-1.292 4.917-1.305l1.936-.013v1.648Zm12.776-10.341c-.84.266-1.63.786-2.114 1.369l-.446.532-.089-.913-.102-.912h-2.637v16.6h2.803v-5.93c0-6.577-.051-6.159.891-7.097.815-.823 2.102-1.203 3.605-1.077l.726.064V20.38c0-.837-.051-1.306-.153-1.37-.28-.177-1.949-.177-2.484 0Zm21.311.025c-1.771.431-3.669 1.94-4.56 3.662-.816 1.572-1.045 2.624-1.045 4.88-.013 2.23.153 3.028.892 4.536.84 1.71 2.382 3.004 4.318 3.612.726.228 1.184.279 2.484.266 1.376 0 1.719-.05 2.522-.33a9.232 9.232 0 0 0 1.541-.722c.65-.418 2.051-1.8 2.051-2.027 0-.076-.357-.419-.79-.76l-.802-.622-.714.672c-.866.823-1.732 1.267-2.84 1.457-2.611.456-4.917-1.09-5.618-3.763-.101-.393-.19-.938-.19-1.204v-.482h11.209v-1.369c-.013-5.043-2.561-8.034-6.815-7.996a8.46 8.46 0 0 0-1.643.19Zm3.452 2.535c.726.342 1.299.975 1.668 1.837.268.621.535 1.724.535 2.205v.317h-8.394l.077-.418c.152-.837.586-1.926.993-2.56 1.121-1.673 3.287-2.256 5.121-1.381Zm13.859-2.573c-.918.304-1.554.697-2.077 1.293l-.509.57-.077-.393a6.263 6.263 0 0 1-.076-.887v-.494h-2.675v16.6h2.802V23.815l.395-.583c.433-.66 1.312-1.293 2.076-1.508.293-.076 1.019-.127 1.644-.127l1.108.013v-1.255c0-.81-.051-1.28-.153-1.343-.28-.178-1.936-.178-2.458-.013Zm26.048 8.39v8.3h.765V19.087h-.765v8.3Z"/>
  </g>
  <defs>
    <clipPath id="a">
      <path fill="#fff" d="M0 .059h183.945v50H0z"/>
    </clipPath>
  </defs>
</svg>
