<?xml version="1.0" encoding="iso-8859-1"?>
<!-- Generator: Adobe Illustrator 16.0.0, SVG Export Plug-In . SVG Version: 6.00 Build 0)  -->
<!DOCTYPE svg PUBLIC "-//W3C//DTD SVG 1.1//EN" "http://www.w3.org/Graphics/SVG/1.1/DTD/svg11.dtd">
<svg version="1.1" id="Capa_1" xmlns="http://www.w3.org/2000/svg" xmlns:xlink="http://www.w3.org/1999/xlink" x="0px" y="0px"
	 width="37.866px" height="37.866px" viewBox="0 0 37.866 37.866" style="enable-background:new 0 0 37.866 37.866;"
	 xml:space="preserve">
<g>
	<path d="M24.617,19.115c-0.377-0.219-0.922-0.418-1.635-0.601c0.664-0.226,1.198-0.51,1.604-0.855
		c0.404-0.346,0.715-0.743,0.931-1.193c0.215-0.451,0.321-0.927,0.321-1.429c0-0.69-0.202-1.325-0.609-1.903
		c-0.406-0.578-0.987-1.021-1.743-1.33c-0.292-0.12-0.641-0.209-1.02-0.283V8.838H19.89v2.501h-1.656V8.838h-2.576v2.501h-3.929
		v2.104h0.6c0.399,0,0.67,0.036,0.812,0.109s0.242,0.171,0.3,0.294c0.058,0.124,0.087,0.411,0.087,0.861v8.481
		c0,0.443-0.029,0.729-0.087,0.856c-0.059,0.127-0.158,0.226-0.3,0.294c-0.142,0.069-0.413,0.104-0.812,0.104h-0.6v2.104h3.929
		v2.502h2.576v-2.502h1.466c0.065,0,0.126-0.002,0.189-0.002v2.504h2.575v-2.719c0.434-0.084,0.813-0.188,1.138-0.318
		c0.89-0.354,1.577-0.874,2.062-1.553c0.485-0.68,0.729-1.424,0.729-2.23c0-0.676-0.16-1.288-0.479-1.837
		C25.594,19.847,25.162,19.419,24.617,19.115z M17.29,13.794h1.667c0.975,0,1.65,0.06,2.028,0.18
		c0.379,0.12,0.667,0.322,0.867,0.605c0.2,0.284,0.3,0.625,0.3,1.024c0,0.386-0.104,0.726-0.315,1.021s-0.524,0.515-0.942,0.659
		c-0.417,0.146-1.062,0.219-1.936,0.219h-1.667L17.29,13.794L17.29,13.794z M21.999,23.191c-0.297,0.379-0.657,0.629-1.082,0.747
		c-0.425,0.12-0.959,0.181-1.604,0.181h-1.11c-0.37,0-0.597-0.021-0.681-0.062c-0.083-0.04-0.143-0.108-0.179-0.212
		c-0.029-0.08-0.047-0.353-0.054-0.816v-3.295h1.969c0.862,0,1.505,0.081,1.926,0.24c0.42,0.16,0.735,0.396,0.945,0.709
		c0.212,0.313,0.316,0.694,0.316,1.146C22.447,22.359,22.297,22.813,21.999,23.191z M36.35,12.197
		c0.375-0.342,0.707-0.733,0.957-1.191c0.585-1.075,0.716-2.314,0.37-3.488C37.106,5.582,35.3,4.23,33.283,4.23
		c-0.438,0-0.876,0.063-1.3,0.188c-0.296,0.087-0.577,0.203-0.845,0.343C24.677-0.774,15.3-1.243,8.328,3.624
		c-6.955,4.854-9.75,13.788-6.817,21.749c-1.256,1.146-1.837,2.938-1.325,4.676c0.571,1.936,2.378,3.287,4.394,3.287
		c0.438,0,0.875-0.062,1.298-0.188c0.276-0.082,0.538-0.19,0.789-0.317c0.055,0.097,0.119,0.188,0.208,0.267
		c3.482,2.987,7.812,4.501,12.157,4.501c3.719,0,7.448-1.108,10.666-3.354c6.975-4.867,9.769-13.841,6.793-21.816
		C36.457,12.337,36.401,12.268,36.35,12.197z M32.55,6.337c0.239-0.071,0.485-0.106,0.732-0.106c1.135,0,2.152,0.763,2.476,1.854
		c0.194,0.662,0.121,1.359-0.208,1.966c-0.33,0.606-0.876,1.047-1.538,1.243c-1.343,0.395-2.816-0.418-3.209-1.746
		c-0.195-0.663-0.121-1.361,0.209-1.967C31.342,6.973,31.888,6.532,32.55,6.337z M5.312,31.228
		c-1.341,0.398-2.816-0.418-3.208-1.747c-0.403-1.365,0.381-2.806,1.747-3.209c0.239-0.068,0.486-0.105,0.732-0.105
		c1.136,0,2.154,0.763,2.476,1.854c0.195,0.662,0.121,1.36-0.208,1.966C6.521,30.591,5.975,31.033,5.312,31.228z M28.554,32.601
		c-6.229,4.347-14.605,3.926-20.375-1.022c0,0-0.001,0-0.001-0.002c0.157-0.199,0.306-0.406,0.43-0.635
		c0.585-1.074,0.717-2.312,0.37-3.486c-0.571-1.937-2.378-3.287-4.394-3.287c-0.438,0-0.875,0.062-1.299,0.188
		c-0.001,0-0.002,0.001-0.003,0.001C0.854,17.332,3.357,9.533,9.473,5.264c6.143-4.289,14.376-3.927,20.137,0.837
		c-0.125,0.169-0.252,0.335-0.354,0.522c-0.585,1.075-0.717,2.313-0.369,3.487c0.569,1.937,2.377,3.287,4.395,3.287
		c0.438,0,0.875-0.062,1.299-0.188c0.021-0.006,0.039-0.019,0.061-0.024C37.257,20.292,34.762,28.267,28.554,32.601z"/>
</g>
<g>
</g>
<g>
</g>
<g>
</g>
<g>
</g>
<g>
</g>
<g>
</g>
<g>
</g>
<g>
</g>
<g>
</g>
<g>
</g>
<g>
</g>
<g>
</g>
<g>
</g>
<g>
</g>
<g>
</g>
</svg>
