<svg xmlns="http://www.w3.org/2000/svg" viewBox="0 0 18.749 19.168"><path d="M17.001 12.168a1 1 0 00-1 1v3.077c0 .46-.022.57-.082.684a.363.363 0 01-.157.157c-.113.06-.225.082-.684.082H2.924c-.459 0-.571-.022-.684-.082a.363.363 0 01-.157-.157c-.06-.113-.082-.225-.082-.684L2 3.668a.5.5 0 01.5-.5l3.5.005c1.333.002 1.335-1.998.002-2l-3.5-.005A2.5 2.5 0 000 3.668v12.577c0 .76.083 1.185.32 1.627.223.42.558.753.977.977.442.237.866.32 1.627.32h12.154c.76 0 1.185-.083 1.627-.32a2.36 2.36 0 00.977-.977c.237-.442.319-.866.319-1.627v-3.077a1 1 0 00-1-1zm-2.32-9.653c-1.338.017-1.71 0-3.026 0-1.333 0-1.24-2.515.094-2.515l5.5.003a1.5 1.5 0 011.5 1.5V7c0 1.333-2.49 1.263-2.49-.07.009-.411-.076-.993-.043-2.481-2.552 2.67-3.891 3.974-6.433 6.515-.943.91-2.885-1.009-1.975-1.951 2.568-2.442 4.374-4.29 6.873-6.498z"/></svg>
