<?xml version="1.0" encoding="UTF-8"?>
<svg width="10px" height="12px" viewBox="0 0 10 12" version="1.1" xmlns="http://www.w3.org/2000/svg" xmlns:xlink="http://www.w3.org/1999/xlink">
    <!-- Generator: Sketch 49 (51002) - http://www.bohemiancoding.com/sketch -->
    <title>Path</title>
    <desc>Created with Sketch.</desc>
    <defs></defs>
    <g id="Shortcodes" stroke="none" stroke-width="1" fill="none" fill-rule="evenodd">
        <g id="Icons" transform="translate(-83.000000, -129.000000)" fill="#4A4A4A">
            <path d="M88,139 C87.449219,139 87,139.449219 87,140 C87,140.550781 87.449219,141 88,141 C88.550781,141 89,140.550781 89,140 C89,139.449219 88.550781,139 88,139 Z M88,129 C88.546875,129 89,129.453125 89,130 L89,131.140625 C90.71875,131.589844 92,133.144531 92,135 L92,137.003906 C92,137.003906 92.003906,137.277344 92.128906,137.53125 C92.253906,137.78125 92.40625,138 93,138 L93,139 L83,139 L83,138 C83.558594,138 83.71875,137.78125 83.851563,137.519531 C83.984375,137.261719 84,136.984375 84,136.984375 L84,135 C84,133.144531 85.28125,131.589844 87,131.140625 L87,130 C87,129.453125 87.453125,129 88,129 Z M88,132 C86.335938,132 85,133.335938 85,135 L85,137.015625 C85,137.015625 84.992188,137.488281 84.742188,137.980469 C84.738281,137.984375 84.730469,137.992188 84.726563,138 L91.25,138 C91.246094,137.988281 91.238281,137.980469 91.234375,137.96875 C90.988281,137.472656 91,136.996094 91,136.996094 L91,135 C91,133.335938 89.664063,132 88,132 Z" id="Path"></path>
        </g>
    </g>
</svg>