<?xml version='1.0' encoding='iso-8859-1'?>
<svg version="1.1" xmlns="http://www.w3.org/2000/svg" viewBox="0 0 470 470" xmlns:xlink="http://www.w3.org/1999/xlink" enable-background="new 0 0 470 470">
  <g>
    <path d="M452.159,16.364H17.841C8.003,16.364,0,24.367,0,34.205v329.205c0,9.837,8.003,17.841,17.841,17.841h163.807v57.386   h-70.739c-4.142,0-7.5,3.358-7.5,7.5s3.358,7.5,7.5,7.5h248.182c4.143,0,7.5-3.358,7.5-7.5s-3.357-7.5-7.5-7.5h-70.738V381.25   h163.807c9.838,0,17.841-8.003,17.841-17.841V34.205C470,24.367,461.997,16.364,452.159,16.364z M273.353,438.636h-76.705V381.25   h76.705V438.636z M455,363.409c0,1.54-1.301,2.841-2.841,2.841H17.841c-1.54,0-2.841-1.301-2.841-2.841V34.205   c0-1.54,1.301-2.841,2.841-2.841h434.318c1.54,0,2.841,1.301,2.841,2.841V363.409z"/>
    <path d="m431.478,305.227h-392.955c-4.142,0-7.5,3.358-7.5,7.5s3.358,7.5 7.5,7.5h392.955c4.143,0 7.5-3.358 7.5-7.5s-3.358-7.5-7.5-7.5z"/>
    <path d="m110,280.227h40c4.142,0 7.5-3.358 7.5-7.5v-108.808c0-4.142-3.358-7.5-7.5-7.5h-40c-4.142,0-7.5,3.358-7.5,7.5v108.808c0,4.142 3.358,7.5 7.5,7.5zm7.5-108.808h25v93.808h-25v-93.808z"/>
    <path d="m180,280.227h40c4.142,0 7.5-3.358 7.5-7.5v-144.291c0-4.142-3.358-7.5-7.5-7.5h-40c-4.142,0-7.5,3.358-7.5,7.5v144.291c0,4.142 3.358,7.5 7.5,7.5zm7.5-144.291h25v129.291h-25v-129.291z"/>
    <path d="m250,280.227h40c4.143,0 7.5-3.358 7.5-7.5v-177.841c0-4.142-3.357-7.5-7.5-7.5h-40c-4.143,0-7.5,3.358-7.5,7.5v177.841c0,4.142 3.357,7.5 7.5,7.5zm7.5-177.841h25v162.841h-25v-162.841z"/>
    <path d="m320,280.227h40c4.143,0 7.5-3.358 7.5-7.5v-74.291c0-4.142-3.357-7.5-7.5-7.5h-40c-4.143,0-7.5,3.358-7.5,7.5v74.291c0,4.142 3.357,7.5 7.5,7.5zm7.5-74.291h25v59.291h-25v-59.291z"/>
  </g>
</svg>
