<?xml version='1.0' encoding='iso-8859-1'?>
<svg version="1.1" xmlns="http://www.w3.org/2000/svg" viewBox="0 0 470 470" xmlns:xlink="http://www.w3.org/1999/xlink" enable-background="new 0 0 470 470">
  <g>
    <path d="m462.5,22.5h-455c-4.142,0-7.5,3.358-7.5,7.5v410c0,4.142 3.358,7.5 7.5,7.5h455c4.143,0 7.5-3.358 7.5-7.5v-80c0-4.142-3.357-7.5-7.5-7.5s-7.5,3.358-7.5,7.5v72.5h-440v-335h440v232.5c0,4.142 3.357,7.5 7.5,7.5s7.5-3.358 7.5-7.5v-300c0-4.142-3.357-7.5-7.5-7.5zm-447.5,15h277.5v45h-277.5v-45zm292.5,45v-45h147.5v45h-147.5z"/>
    <path d="m381.5,52c-4.411,0-8,3.589-8,8s3.589,8 8,8 8-3.589 8-8-3.589-8-8-8z"/>
    <path d="m340.5,52c-4.411,0-8,3.589-8,8s3.589,8 8,8 8-3.589 8-8-3.589-8-8-8z"/>
    <path d="m422.5,52c-4.411,0-8,3.589-8,8s3.589,8 8,8 8-3.589 8-8-3.589-8-8-8z"/>
    <path d="m151.351,147.764l60.392,60.392c2.929,2.929 7.678,2.929 10.606,0 2.929-2.929 2.929-7.678 0-10.606l-65.677-65.677c-2.922-2.922-7.657-2.93-10.588-0.018l-44.268,43.969c-1.415,1.405-2.211,3.315-2.215,5.309s0.787,3.906 2.197,5.316l29.009,29.009c0.01,0.01 36.819,36.819 36.819,36.819 1.464,1.464 3.384,2.197 5.303,2.197s3.839-0.732 5.303-2.197c2.929-2.929 2.929-7.678 0-10.606l-2.497-2.497 17.163-17.163c2.929-2.929 2.929-7.678 0-10.606-2.929-2.929-7.678-2.929-10.606,0l-17.163,17.163-18.407-18.407 17.163-17.163c2.929-2.929 2.929-7.678 0-10.606-2.929-2.929-7.678-2.929-10.606,0l-17.163,17.163-18.389-18.389 33.624-33.402z"/>
    <path d="m255.499,340.15c0.001,0.001 57.978,57.978 57.978,57.978 1.407,1.407 3.314,2.197 5.304,2.197s3.896-0.79 5.304-2.197l44.118-44.119c2.929-2.929 2.929-7.678 0-10.606l-65.752-65.752c-2.93-2.929-7.678-2.929-10.607,0-2.929,2.929-2.929,7.678 0,10.606l60.449,60.449-33.512,33.512-18.382-18.382 17.163-17.164c2.929-2.929 2.929-7.678 0-10.606-2.93-2.929-7.678-2.929-10.607,0l-17.163,17.163-18.382-18.382 17.164-17.163c2.929-2.929 2.929-7.678 0-10.606-2.929-2.929-7.677-2.929-10.607,0l-17.163,17.163-2.472-2.472c-2.93-2.929-7.678-2.929-10.607,0-2.929,2.929-2.929,7.678 0,10.606l7.774,7.775z"/>
    <path d="m107.66,399.842c0.992,0 1.994-0.197 2.943-0.603l65.622-28.023c0.029-0.013 0.133-0.057 0.133-0.057 0.064-0.027 0.125-0.062 0.188-0.091 0.142-0.065 0.284-0.13 0.422-0.205 0.082-0.044 0.161-0.095 0.241-0.143 0.126-0.074 0.253-0.146 0.376-0.229 0.104-0.07 0.202-0.148 0.303-0.222 0.093-0.07 0.189-0.135 0.279-0.209 0.19-0.156 0.374-0.321 0.548-0.496l162.059-162.058c0.001-0.001 19.082-19.082 19.082-19.082 6.439-6.44 9.986-15.014 9.986-24.141 0.001-9.127-3.546-17.701-9.986-24.141-6.44-6.44-15.014-9.987-24.141-9.987-9.128,0-17.701,3.547-24.142,9.987l-19.075,19.076c-0.011,0.011-162.064,162.064-162.064,162.064-0.175,0.174-0.339,0.358-0.495,0.548-0.076,0.093-0.143,0.191-0.214,0.286-0.073,0.098-0.149,0.193-0.217,0.295-0.084,0.126-0.159,0.256-0.235,0.386-0.045,0.077-0.094,0.152-0.136,0.231-0.076,0.141-0.143,0.286-0.209,0.431-0.028,0.061-0.061,0.119-0.088,0.181l-.043,.1c-0.015,0.034-28.037,65.655-28.037,65.655-1.203,2.817-0.572,6.083 1.594,8.249 1.436,1.437 3.354,2.198 5.306,2.198zm190.136-224.706l27.068,27.068-151.452,151.452-27.068-27.068 151.452-151.452zm24.385-24.385c3.606-3.607 8.413-5.594 13.534-5.594 5.12,0 9.927,1.986 13.534,5.594 3.606,3.606 5.593,8.413 5.593,13.533 0,5.121-1.986,9.927-5.594,13.535l-13.777,13.777-27.068-27.068 13.778-13.777zm-183.903,188.984l21.987,21.987-38.374,16.387 16.387-38.374z"/>
  </g>
</svg>
