<?xml version='1.0' encoding='iso-8859-1'?>
<svg version="1.1" xmlns="http://www.w3.org/2000/svg" viewBox="0 0 470 470" xmlns:xlink="http://www.w3.org/1999/xlink" enable-background="new 0 0 470 470">
  <g>
    <path d="M462.5,22.5H330c-4.142,0-7.5,3.357-7.5,7.5s3.358,7.5,7.5,7.5h125v45H307.5V30c0-4.143-3.358-7.5-7.5-7.5H170   c-4.142,0-7.5,3.357-7.5,7.5v52.5H15v-45h125c4.142,0,7.5-3.357,7.5-7.5s-3.358-7.5-7.5-7.5H7.5C3.358,22.5,0,25.857,0,30v410   c0,4.143,3.358,7.5,7.5,7.5h455c4.142,0,7.5-3.357,7.5-7.5v-80c0-4.143-3.358-7.5-7.5-7.5s-7.5,3.357-7.5,7.5v72.5H15v-335h147.5   V330c0,2.883,1.653,5.511,4.251,6.76c2.599,1.25,5.683,0.899,7.934-0.903L235,287.604l60.315,48.252   c1.356,1.085,3.014,1.644,4.686,1.644c1.104,0,2.215-0.243,3.248-0.74c2.598-1.249,4.251-3.877,4.251-6.76V97.5H455V330   c0,4.143,3.358,7.5,7.5,7.5s7.5-3.357,7.5-7.5V30C470,25.857,466.642,22.5,462.5,22.5z M292.5,314.396l-52.815-42.252   c-1.37-1.096-3.027-1.644-4.685-1.644s-3.315,0.548-4.685,1.644L177.5,314.396V37.5h50V248c0,4.143,3.358,7.5,7.5,7.5   s7.5-3.357,7.5-7.5V37.5h50V314.396z"/>
    <path d="m389.5,60c0-4.411-3.589-8-8-8s-8,3.589-8,8 3.589,8 8,8 8-3.589 8-8z"/>
    <path d="m348.5,60c0-4.411-3.589-8-8-8s-8,3.589-8,8 3.589,8 8,8 8-3.589 8-8z"/>
    <path d="m430.5,60c0-4.411-3.589-8-8-8s-8,3.589-8,8 3.589,8 8,8 8-3.589 8-8z"/>
  </g>
</svg>
