<?xml version="1.0" encoding="UTF-8"?>
<svg width="16px" height="8px" viewBox="0 0 16 8" version="1.1" xmlns="http://www.w3.org/2000/svg" xmlns:xlink="http://www.w3.org/1999/xlink">
    <!-- Generator: Sketch 49 (51002) - http://www.bohemiancoding.com/sketch -->
    <title>Fill 1</title>
    <desc>Created with Sketch.</desc>
    <defs></defs>
    <g id="Shortcodes" stroke="none" stroke-width="1" fill="none" fill-rule="evenodd">
        <g id="Icons" transform="translate(-400.000000, -179.000000)" fill="#4A4A4A">
            <path d="M401.5,180 C401.224,180 401,180.224 401,180.5 L401,185.5 C401,185.775 401.224,186 401.5,186 L414.5,186 C414.775,186 415,185.775 415,185.5 L415,180.5 C415,180.224 414.775,180 414.5,180 L401.5,180 Z M414.5,187 L401.5,187 C400.673,187 400,186.327 400,185.5 L400,180.5 C400,179.673 400.673,179 401.5,179 L414.5,179 C415.327,179 416,179.673 416,180.5 L416,185.5 C416,186.327 415.327,187 414.5,187 Z M404,182 C404.552,182 405,182.448 405,183 C405,183.552 404.552,184 404,184 C403.448,184 403,183.552 403,183 C403,182.448 403.448,182 404,182 M408,182 C408.552,182 409,182.448 409,183 C409,183.552 408.552,184 408,184 C407.448,184 407,183.552 407,183 C407,182.448 407.448,182 408,182 M412,182 C412.553,182 413,182.448 413,183 C413,183.552 412.553,184 412,184 C411.447,184 411,183.552 411,183 C411,182.448 411.447,182 412,182" id="Fill-1"></path>
        </g>
    </g>
</svg>