<svg xmlns="http://www.w3.org/2000/svg" xmlns:xlink="http://www.w3.org/1999/xlink" viewBox="0 0 32 32" version="1.1">
<g id="surface1">
<path style=" " d="M 2.898438 8 C 1.316406 8 0 9.316406 0 10.902344 L 0 22.097656 C 0 23.632813 1.253906 25 2.898438 25 L 29.097656 25 C 30.632813 25 32 23.746094 32 22.097656 L 32 10.902344 C 32 9.316406 30.683594 8 29.097656 8 Z M 2.898438 10 L 29.097656 10 C 29.714844 10 30 10.285156 30 10.902344 L 30 22.097656 C 30 22.652344 29.566406 23 29.097656 23 L 2.898438 23 C 2.347656 23 2 22.566406 2 22.097656 L 2 10.902344 C 2 10.285156 2.285156 10 2.898438 10 Z M 9.5 15 C 8.671875 15 8 15.671875 8 16.5 C 8 17.328125 8.671875 18 9.5 18 C 10.328125 18 11 17.328125 11 16.5 C 11 15.671875 10.328125 15 9.5 15 Z M 15.5 15 C 14.671875 15 14 15.671875 14 16.5 C 14 17.328125 14.671875 18 15.5 18 C 16.328125 18 17 17.328125 17 16.5 C 17 15.671875 16.328125 15 15.5 15 Z M 21.5 15 C 20.671875 15 20 15.671875 20 16.5 C 20 17.328125 20.671875 18 21.5 18 C 22.328125 18 23 17.328125 23 16.5 C 23 15.671875 22.328125 15 21.5 15 Z "></path>
</g>
</svg>