<?xml version='1.0' encoding='iso-8859-1'?>
<svg version="1.1" xmlns="http://www.w3.org/2000/svg" viewBox="0 0 470 470" xmlns:xlink="http://www.w3.org/1999/xlink" enable-background="new 0 0 470 470">
  <g>
    <path d="M432.5,115.005c4.142,0,7.5-3.357,7.5-7.5V75h22.5c4.142,0,7.5-3.357,7.5-7.5v-60c0-4.143-3.358-7.5-7.5-7.5h-60   c-4.142,0-7.5,3.357-7.5,7.5V30H75V7.5C75,3.357,71.642,0,67.5,0h-60C3.358,0,0,3.357,0,7.5v60C0,71.643,3.358,75,7.5,75H30v320   H7.5c-4.142,0-7.5,3.357-7.5,7.5v60c0,4.143,3.358,7.5,7.5,7.5h60c4.142,0,7.5-3.357,7.5-7.5V440h320v22.5   c0,4.143,3.358,7.5,7.5,7.5h60c4.142,0,7.5-3.357,7.5-7.5v-60c0-4.143-3.358-7.5-7.5-7.5H440V137.505c0-4.143-3.358-7.5-7.5-7.5   s-7.5,3.357-7.5,7.5V395h-22.5c-4.142,0-7.5,3.357-7.5,7.5V425H75v-22.5c0-4.143-3.358-7.5-7.5-7.5H45V75h22.5   c4.142,0,7.5-3.357,7.5-7.5V45h320v22.5c0,4.143,3.358,7.5,7.5,7.5H425v32.505C425,111.647,428.358,115.005,432.5,115.005z    M410,410h45v45h-45V410z M60,455H15v-45h45V455z M60,60H15V15h45V60z M410,15h45v45h-45V15z"/>
    <path d="M370,107.505c0-4.143-3.358-7.5-7.5-7.5h-255c-4.142,0-7.5,3.357-7.5,7.5v127.494c0,4.143,3.358,7.5,7.5,7.5h255   c4.142,0,7.5-3.357,7.5-7.5V107.505z M115,119.64l103.229,51.612L115,222.864V119.64z M139.271,115.005h191.457L235,162.867   L139.271,115.005z M235,179.637l95.729,47.862H139.271L235,179.637z M251.771,171.252L355,119.64v103.225L251.771,171.252z"/>
    <path d="M220,355H107.5c-4.142,0-7.5,3.357-7.5,7.5s3.358,7.5,7.5,7.5H220c4.142,0,7.5-3.357,7.5-7.5S224.142,355,220,355z"/>
    <path d="m362.5,355h-112.5c-4.142,0-7.5,3.357-7.5,7.5s3.358,7.5 7.5,7.5h112.5c4.142,0 7.5-3.357 7.5-7.5s-3.358-7.5-7.5-7.5z"/>
    <path d="m220,323.125h-112.5c-4.142,0-7.5,3.357-7.5,7.5s3.358,7.5 7.5,7.5h112.5c4.142,0 7.5-3.357 7.5-7.5s-3.358-7.5-7.5-7.5z"/>
    <path d="m362.5,323.125h-112.5c-4.142,0-7.5,3.357-7.5,7.5s3.358,7.5 7.5,7.5h112.5c4.142,0 7.5-3.357 7.5-7.5s-3.358-7.5-7.5-7.5z"/>
    <path d="m220,291.25h-112.5c-4.142,0-7.5,3.357-7.5,7.5s3.358,7.5 7.5,7.5h112.5c4.142,0 7.5-3.357 7.5-7.5s-3.358-7.5-7.5-7.5z"/>
    <path d="m362.5,291.25h-112.5c-4.142,0-7.5,3.357-7.5,7.5s3.358,7.5 7.5,7.5h112.5c4.142,0 7.5-3.357 7.5-7.5s-3.358-7.5-7.5-7.5z"/>
    <path d="m362.5,259.374h-255c-4.142,0-7.5,3.357-7.5,7.5s3.358,7.5 7.5,7.5h255c4.142,0 7.5-3.357 7.5-7.5s-3.358-7.5-7.5-7.5z"/>
  </g>
</svg>
