<?xml version='1.0' encoding='iso-8859-1'?>
<svg version="1.1" xmlns="http://www.w3.org/2000/svg" viewBox="0 0 470 470" xmlns:xlink="http://www.w3.org/1999/xlink" enable-background="new 0 0 470 470">
  <g>
    <path d="M253.5,306.444c4.143,0,7.5-3.358,7.5-7.5s-3.357-7.5-7.5-7.5H16.113c-0.593,0-1.113-0.521-1.113-1.114V16.114   C15,15.521,15.521,15,16.113,15h361.773c0.593,0,1.113,0.521,1.113,1.114v132.001c0,4.142,3.357,7.5,7.5,7.5s7.5-3.358,7.5-7.5   V16.114C394,7.229,386.771,0,377.887,0H16.113C7.229,0,0,7.229,0,16.114V290.33c0,8.885,7.229,16.114,16.113,16.114h135.193v45.295   h-57.67c-4.143,0-7.5,3.358-7.5,7.5s3.357,7.5,7.5,7.5H253.5c4.143,0,7.5-3.358,7.5-7.5s-3.357-7.5-7.5-7.5h-10.807v-45.295H253.5z    M227.693,351.739h-61.387v-45.295h61.387V351.739z"/>
    <path d="m253.5,240.614h-216c-4.143,0-7.5,3.358-7.5,7.5s3.357,7.5 7.5,7.5h216c4.143,0 7.5-3.358 7.5-7.5s-3.357-7.5-7.5-7.5z"/>
    <path d="m453.887,170.614h-161.774c-8.885,0-16.113,7.229-16.113,16.114v267.159c0,8.885 7.229,16.114 16.113,16.114h161.773c8.885,0 16.113-7.229 16.113-16.114v-267.159c0.001-8.886-7.228-16.114-16.112-16.114zm-162.887,45h164v179.386h-164v-179.386zm1.113-30h161.773c0.593,0 1.113,0.521 1.113,1.114v13.886h-163.999v-13.886c0-0.594 0.521-1.114 1.113-1.114zm161.774,269.386h-161.774c-0.593,0-1.113-0.521-1.113-1.114v-43.886h164v43.886c0,0.593-0.521,1.114-1.113,1.114z"/>
    <path d="m388,425h-30c-4.143,0-7.5,3.358-7.5,7.5s3.357,7.5 7.5,7.5h30c4.143,0 7.5-3.358 7.5-7.5s-3.357-7.5-7.5-7.5z"/>
  </g>
</svg>
