<?xml version='1.0' encoding='iso-8859-1'?>
<svg version="1.1" xmlns="http://www.w3.org/2000/svg" viewBox="0 0 470 470" xmlns:xlink="http://www.w3.org/1999/xlink" enable-background="new 0 0 470 470">
  <g>
    <path d="m465.115,137.964c-3.342-3.609-8.103-5.884-13.398-5.884h-44.823v-124.58c0-4.143-3.357-7.5-7.5-7.5h-328.789c-4.143,0-7.5,3.357-7.5,7.5v124.579h-44.823c-5.294,0-10.055,2.276-13.397,5.884-3.021,3.263-4.885,7.612-4.885,12.398v301.356c0,10.082 8.201,18.283 18.282,18.283h433.436c10.081,0 18.282-8.201 18.282-18.282v-301.357c5.68434e-14-4.786-1.864-9.135-4.885-12.397zm-394.51,31.524c4.143,0 7.5-3.357 7.5-7.5v-146.988h313.789v146.988c0,4.143 3.357,7.5 7.5,7.5s7.5-3.357 7.5-7.5v-14.909h38.007l-201.46,209.814c-2.257,2.351-5.255,3.646-8.441,3.646s-6.185-1.295-8.441-3.646l-201.461-209.814h38.007v14.909c0,4.143 3.358,7.5 7.5,7.5zm381.113,285.512h-433.436c-1.779,0-3.282-1.503-3.282-3.282v-293.498l137.134,142.82-120.665,125.669c-2.868,2.987-2.772,7.735 0.216,10.604 1.454,1.396 3.325,2.09 5.193,2.09 1.971,0 3.938-0.771 5.411-2.306l120.243-125.229 53.207,55.413c5.112,5.324 11.953,8.257 19.262,8.257s14.149-2.933 19.262-8.257l53.207-55.413 47.031,48.98c1.473,1.534 3.44,2.306 5.411,2.306 1.868,0 3.739-0.694 5.193-2.09 2.988-2.869 3.084-7.617 0.216-10.604l-47.453-49.42 137.132-142.82v293.498c0,1.779-1.503,3.282-3.282,3.282z"/>
    <path d="m389.19,375.321c-2.869-2.989-7.616-3.083-10.604-0.216-2.988,2.869-3.084,7.617-0.216,10.604l49.34,51.387c1.473,1.534 3.44,2.306 5.411,2.306 1.868,0 3.739-0.694 5.193-2.09 2.988-2.869 3.084-7.617 0.216-10.604l-49.34-51.387z"/>
    <path d="m146.396,248h141.698c12.92,0 23.432-10.512 23.432-23.432 0-4.613-1.341-8.921-3.651-12.551 6.143-4.229 10.177-11.309 10.177-19.313 0-4.613-1.34-8.92-3.651-12.55 6.143-4.229 10.177-11.309 10.177-19.313 0-4.613-1.341-8.921-3.652-12.551 6.144-4.229 10.178-11.309 10.178-19.313 0-12.92-10.512-23.432-23.432-23.432l-42.542,.001c7.102-15.211 10.931-33.264 10.931-52.114 0-12.92-10.512-23.432-23.432-23.432s-23.432,10.512-23.432,23.432c0,28.735-23.378,52.113-52.113,52.113h-30.687c-4.143,0-7.5,3.357-7.5,7.5v127.455c-0.001,4.143 3.357,7.5 7.499,7.5zm97.8-194.568c0-4.649 3.782-8.432 8.432-8.432s8.432,3.782 8.432,8.432c0,21.038-5.297,40.756-14.914,55.521-1.502,2.306-1.621,5.249-0.31,7.668s3.842,3.926 6.594,3.926l55.241-.001c4.649,0 8.432,3.782 8.432,8.432s-3.782,8.432-8.432,8.432h-19.576c-4.143,0-7.5,3.357-7.5,7.5s3.357,7.5 7.5,7.5h13.051c4.649,0 8.432,3.783 8.432,8.433s-3.782,8.432-8.432,8.432h-13.051c-4.143,0-7.5,3.357-7.5,7.5s3.357,7.5 7.5,7.5h6.525c4.649,0 8.432,3.782 8.432,8.432s-3.782,8.432-8.432,8.432h-6.525c-4.143,0-7.5,3.357-7.5,7.5s3.357,7.5 7.5,7.5c4.649,0 8.432,3.783 8.432,8.433s-3.783,8.428-8.432,8.428h-103.512v-112.885c33.488-3.742 59.613-32.213 59.613-66.683zm-90.3,67.113h15.687v112.455h-15.687v-112.455z"/>
  </g>
</svg>
