<?xml version="1.0" encoding="iso-8859-1"?>
<!-- Generator: Adobe Illustrator 19.0.0, SVG Export Plug-In . SVG Version: 6.00 Build 0)  -->
<svg version="1.1" id="Capa_1" xmlns="http://www.w3.org/2000/svg" xmlns:xlink="http://www.w3.org/1999/xlink" x="0px" y="0px"
	 viewBox="0 0 512 512" style="enable-background:new 0 0 512 512;" xml:space="preserve">
<polygon style="fill:#FF3F62;" points="192.274,462.413 192.274,504.505 319.342,504.505 319.342,462.22 359.1,422.848 
	359.1,366.32 359.1,304.429 321.063,304.429 321.063,291.769 278.8,291.769 278.8,277.109 235.537,277.109 235.537,205.083 
	192.274,205.083 192.274,295.095 172.588,295.095 152.903,315.598 152.903,422.655 "/>
<g>
	<rect x="230.425" y="368.352" style="fill:#A5001E;" width="28.247" height="28.247"/>
	<rect x="280.672" y="368.352" style="fill:#A5001E;" width="28.247" height="28.247"/>
</g>
<polygon style="fill:#C6C5CA;" points="247.517,7.498 247.517,110.697 144.318,110.697 144.318,230.863 192.274,230.863 
	192.274,205.083 235.537,205.083 235.537,230.863 247.517,230.863 367.684,230.863 367.684,110.697 367.684,7.498 "/>
<polygon style="fill:#898890;" points="318.547,86.459 318.547,151.828 265.755,151.828 265.755,135.877 210.351,167.866 
	265.755,199.859 265.755,183.909 350.628,183.909 350.628,179.289 350.628,151.828 350.628,86.459 "/>
<g>
	<rect x="214.432" y="368.352" style="fill:#FFB655;" width="28.247" height="28.247"/>
	<rect x="264.68" y="368.352" style="fill:#FFB655;" width="28.247" height="28.247"/>
</g>
<polygon style="fill:#57A4FF;" points="301.555,86.459 301.555,151.828 248.763,151.828 248.763,135.877 193.359,167.866 
	248.763,199.859 248.763,183.909 333.636,183.909 333.636,179.289 333.636,151.828 333.636,86.459 "/>
<polygon style="fill:#A5001E;" points="182.89,422.655 182.89,315.598 202.575,295.095 222.261,295.095 222.261,205.083 
	192.274,205.083 192.274,295.095 172.588,295.095 152.903,315.598 152.903,422.655 192.274,462.413 192.274,504.505 
	222.261,504.505 222.261,462.413 "/>
<g>
	<rect x="144.314" y="110.7" style="fill:#898890;" width="29.986" height="120.165"/>
	<rect x="247.517" y="7.498" style="fill:#898890;" width="29.986" height="103.203"/>
	<rect x="235.533" y="205.087" style="fill:#898890;" width="29.986" height="25.78"/>
</g>
<g>
	<rect x="214.432" y="368.352" style="fill:#EE8700;" width="15.993" height="28.247"/>
	<rect x="264.68" y="368.352" style="fill:#EE8700;" width="15.993" height="28.247"/>
</g>
<g>
	<rect x="301.553" y="86.461" style="fill:#006DF0;" width="15.993" height="65.37"/>
	<polygon style="fill:#006DF0;" points="216.349,167.866 248.763,149.151 248.763,135.877 193.359,167.866 248.763,199.859 
		248.763,186.583 	"/>
</g>
<g>
	<rect x="263.88" y="476.513" style="fill:#1D1D1F;" width="14.993" height="14.993"/>
	<rect x="238.891" y="476.513" style="fill:#1D1D1F;" width="14.993" height="14.993"/>
	<rect x="213.903" y="476.513" style="fill:#1D1D1F;" width="14.992" height="14.993"/>
	<rect x="207.556" y="123.674" style="fill:#1D1D1F;" width="14.993" height="14.993"/>
	<rect x="157.578" y="123.674" style="fill:#1D1D1F;" width="14.992" height="14.993"/>
	<rect x="182.567" y="123.674" style="fill:#1D1D1F;" width="14.993" height="14.993"/>
	<path style="fill:#1D1D1F;" d="M206.933,404.044l43.24,0.05v-43.19l-43.24-0.05V404.044z M221.926,375.847h13.254v13.254h-13.254
		V375.847z"/>
	<path style="fill:#1D1D1F;" d="M300.42,360.903l-43.251-0.05v43.19l43.251,0.05V360.903z M285.427,389.1h-13.254v-13.254h13.254
		V389.1z"/>
</g>
<g>
	<rect x="264" y="21.1" style="fill:#FFFFFF;" width="38.482" height="14.993"/>
	<rect x="312.478" y="21.1" style="fill:#FFFFFF;" width="14.993" height="14.993"/>
	<rect x="337.466" y="21.1" style="fill:#FFFFFF;" width="14.993" height="14.993"/>
</g>
<g>
	<rect x="317.146" y="202.588" style="fill:#1D1D1F;" width="35.314" height="14.993"/>
	<polygon style="fill:#1D1D1F;" points="328.558,284.271 307.779,284.271 307.779,299.264 313.565,299.264 313.565,299.264 
		313.565,299.264 313.565,338.079 328.558,338.079 328.558,311.924 351.601,311.924 351.601,419.72 311.844,459.092 
		311.844,497.007 199.77,497.007 199.77,469.909 235.537,469.909 235.537,454.915 195.4,454.915 181.035,440.408 170.38,450.959 
		184.777,465.496 184.777,512 326.837,512 326.837,465.346 366.594,425.974 366.594,296.932 328.558,296.932 	"/>
	<polygon style="fill:#1D1D1F;" points="240.02,0 240.02,31.592 255.013,31.592 255.013,14.993 360.185,14.993 360.185,223.366 
		243.033,223.366 243.033,205.208 256.258,212.844 256.258,191.406 341.132,191.406 341.132,146.978 326.139,146.978 
		326.139,176.413 241.265,176.413 241.265,186.873 208.35,167.865 241.265,148.861 241.265,159.324 309.049,159.324 309.049,93.953 
		326.139,93.953 326.139,131.985 341.132,131.985 341.132,78.96 294.056,78.96 294.056,144.33 256.258,144.33 256.258,122.891 
		178.367,167.864 229.835,197.586 184.777,197.586 184.777,223.366 151.815,223.366 151.815,118.192 255.013,118.192 
		255.013,46.585 240.02,46.585 240.02,103.199 136.822,103.199 136.822,238.36 184.777,238.36 184.777,287.598 169.393,287.598 
		145.406,312.581 145.406,425.738 159.831,440.305 170.485,429.755 160.399,419.57 160.399,318.614 175.783,302.591 
		184.777,302.591 184.777,335.806 169.781,335.806 169.781,350.8 184.777,350.8 184.777,388.057 199.771,388.057 199.77,288.434 
		199.77,288.434 199.77,288.434 216.019,288.434 216.019,273.44 199.77,273.44 199.77,212.579 228.04,212.579 228.04,329.584 
		243.033,329.584 243.033,284.603 271.302,284.603 271.302,329.584 286.296,329.584 286.296,299.264 292.786,299.264 
		292.786,284.271 286.295,284.271 286.295,269.61 243.033,269.61 243.033,238.36 375.178,238.36 375.178,0 	"/>
</g>
<g>
	<rect x="328.471" y="374.39" style="fill:#FFFFFF;" width="14.993" height="14.993"/>
	<rect x="328.471" y="349.411" style="fill:#FFFFFF;" width="14.993" height="14.992"/>
	<polygon style="fill:#FFFFFF;" points="328.468,411.278 309.269,430.288 319.819,440.942 343.461,417.532 343.461,399.383 
		328.468,399.383 	"/>
</g>
<rect x="157.548" y="189.144" style="fill:#1D1D1F;" width="14.993" height="28.488"/>
<g>
</g>
<g>
</g>
<g>
</g>
<g>
</g>
<g>
</g>
<g>
</g>
<g>
</g>
<g>
</g>
<g>
</g>
<g>
</g>
<g>
</g>
<g>
</g>
<g>
</g>
<g>
</g>
<g>
</g>
</svg>
