<?xml version='1.0' encoding='iso-8859-1'?>
<svg version="1.1" xmlns="http://www.w3.org/2000/svg" viewBox="0 0 470 470" xmlns:xlink="http://www.w3.org/1999/xlink" enable-background="new 0 0 470 470">
  <g>
    <path d="m235,224.341c-25.865,0-46.908,21.043-46.908,46.909s21.043,46.909 46.908,46.909 46.908-21.043 46.908-46.909-21.043-46.909-46.908-46.909zm0,78.818c-17.595,0-31.908-14.314-31.908-31.909s14.313-31.909 31.908-31.909 31.908,14.314 31.908,31.909-14.313,31.909-31.908,31.909z"/>
    <path d="m351.56,244.046h-34.622c-1.307-3.927-2.902-7.765-4.774-11.486l24.484-24.485c2.589-2.589 2.93-6.67 0.806-9.653-8.177-11.483-18.144-21.451-29.624-29.625-2.983-2.123-7.063-1.784-9.654,0.806l-24.484,24.484c-3.721-1.872-7.559-3.468-11.486-4.774v-34.623c0-3.663-2.646-6.79-6.259-7.396-6.992-1.174-14.04-1.769-20.945-1.769-6.907,0-13.954,0.595-20.946,1.77-3.612,0.607-6.258,3.734-6.258,7.396v34.622c-3.928,1.307-7.767,2.902-11.486,4.774l-24.484-24.484c-2.591-2.591-6.673-2.929-9.654-0.806-11.48,8.175-21.447,18.143-29.624,29.625-2.124,2.983-1.783,7.064 0.806,9.653l24.484,24.485c-1.872,3.721-3.468,7.559-4.774,11.486h-34.626c-3.663,0-6.79,2.646-7.396,6.258-1.174,6.995-1.77,14.042-1.77,20.946s0.596,13.951 1.77,20.946c0.606,3.612 3.733,6.258 7.396,6.258h34.622c1.307,3.927 2.902,7.765 4.775,11.486l-24.485,24.484c-2.589,2.589-2.93,6.67-0.806,9.653 8.177,11.483 18.144,21.451 29.624,29.625 2.984,2.125 7.063,1.784 9.654-0.806l24.484-24.484c3.721,1.872 7.559,3.468 11.486,4.774v34.622c0,3.663 2.646,6.79 6.259,7.396 6.994,1.174 14.042,1.77 20.945,1.77 6.907,0 13.954-0.595 20.946-1.77 3.612-0.607 6.258-3.734 6.258-7.396v-34.622c3.927-1.307 7.765-2.902 11.485-4.775l24.484,24.485c2.59,2.59 6.673,2.93 9.653,0.806 11.482-8.175 21.45-18.143 29.626-29.625 2.124-2.983 1.783-7.064-0.806-9.653l-24.484-24.485c1.872-3.721 3.468-7.559 4.774-11.486h34.622c3.663,0 6.79-2.646 7.396-6.258 1.174-6.995 1.77-14.042 1.77-20.946s-0.596-13.951-1.77-20.946c-0.602-3.611-3.729-6.257-7.392-6.257zm-6.523,39.408h-33.703c-3.422,0-6.41,2.316-7.264,5.63-1.649,6.41-4.219,12.592-7.636,18.376-1.741,2.947-1.267,6.698 1.153,9.118l23.839,23.839c-5.106,6.377-10.883,12.153-17.259,17.26l-23.839-23.839c-2.422-2.421-6.174-2.895-9.118-1.154-5.785,3.417-11.968,5.987-18.376,7.636-3.314,0.853-5.631,3.841-5.631,7.263v33.704c-8.187,0.915-16.218,0.914-24.408,0v-33.704c0-3.422-2.316-6.41-5.631-7.263-6.411-1.65-12.594-4.219-18.375-7.636-2.946-1.74-6.699-1.267-9.119,1.154l-23.839,23.839c-6.376-5.106-12.152-10.883-17.259-17.259l23.839-23.839c2.42-2.42 2.895-6.171 1.153-9.118-3.417-5.784-5.986-11.967-7.636-18.376-0.854-3.314-3.842-5.63-7.264-5.63h-33.703c-0.458-4.095-0.688-8.18-0.688-12.204s0.23-8.109 0.688-12.204h33.703c3.422,0 6.41-2.316 7.264-5.63 1.649-6.41 4.219-12.592 7.636-18.376 1.741-2.947 1.267-6.698-1.153-9.118l-23.839-23.839c5.106-6.376 10.883-12.153 17.259-17.259l23.839,23.839c2.421,2.42 6.172,2.896 9.119,1.154 5.781-3.417 11.964-5.985 18.376-7.636 3.313-0.853 5.63-3.841 5.63-7.263v-33.704c8.188-0.915 16.221-0.915 24.408,0v33.705c0,3.422 2.316,6.41 5.631,7.263 6.411,1.65 12.594,4.219 18.375,7.636 2.946,1.74 6.699,1.266 9.119-1.154l23.839-23.839c6.376,5.106 12.152,10.883 17.259,17.259l-23.839,23.839c-2.42,2.42-2.895,6.171-1.153,9.118 3.417,5.784 5.986,11.966 7.636,18.376 0.854,3.314 3.842,5.63 7.264,5.63h33.703c0.458,4.095 0.688,8.18 0.688,12.204s-0.23,8.107-0.688,12.202z"/>
    <path d="m430,65.524h-165c-4.143,0-7.5,3.358-7.5,7.5s3.357,7.5 7.5,7.5h165c13.785,0 25,11.215 25,25v8.808c-6.854-5.504-15.546-8.808-25-8.808h-187.5v-32.5c0-22.056-17.944-40-40-40h-162.5c-22.056,0-40,17.944-40,40v356.451c0,4.142 3.357,7.5 7.5,7.5h455c4.143,0 7.5-3.358 7.5-7.5v-323.951c0-22.056-17.944-40-40-40zm25,356.452h-440v-348.952c0-13.785 11.215-25 25-25h162.5c13.785,0 25,11.215 25,25v40c0,4.142 3.357,7.5 7.5,7.5h195c13.785,0 25,11.215 25,25v276.452z"/>
  </g>
</svg>
