<?xml version="1.0" encoding="iso-8859-1"?>
<!-- Generator: Adobe Illustrator 19.0.0, SVG Export Plug-In . SVG Version: 6.00 Build 0)  -->
<svg version="1.1" id="Layer_1" xmlns="http://www.w3.org/2000/svg" xmlns:xlink="http://www.w3.org/1999/xlink" x="0px" y="0px"
     viewBox="0 0 512 512" style="enable-background:new 0 0 512 512;" xml:space="preserve">
<g>
	<g>
		<g>
			<path d="M165.484,153.327c-7.359-16.45-20.716-25.51-37.614-25.51h-3.066c-16.866,0-30.702,9.297-37.971,25.538L3.766,340.94
				C1.901,345.048,0,349.982,0,355.459c0,18.239,14.137,32.525,32.186,32.525c13.994,0,25.779-7.913,31.543-21.213l14.613-34.29
				h94.3l13.951,32.655c6.443,14.734,17.996,22.848,32.535,22.848c18.431,0,32.868-14.586,32.868-33.206
				c0-4.295-1.093-8.701-3.412-13.799L165.484,153.327z M219.127,371.967c-8.12,0-13.961-4.334-17.833-13.187l-16.003-37.453
				c-1.26-2.949-4.158-4.862-7.363-4.862H73.048c-3.21,0-6.11,1.916-7.367,4.869l-16.667,39.113
				c-3.22,7.43-9.196,11.52-16.828,11.52c-9.066,0-16.169-7.251-16.169-16.508c0-2.448,1.254-5.52,2.346-7.924
				c0.011-0.023,0.021-0.047,0.031-0.07l83.072-187.594c3.274-7.315,9.983-16.036,23.34-16.036h3.066
				c10.497,0,18.233,5.394,22.98,16.006l83.119,187.694c1.37,3.014,2.008,5.315,2.008,7.244
				C235.979,364.416,228.576,371.967,219.127,371.967z"/>
            <path d="M132.869,196.402c-1.248-2.974-4.159-4.908-7.384-4.908c-3.225,0-6.135,1.934-7.384,4.908l-33.03,78.66
				c-1.039,2.472-0.771,5.3,0.714,7.534c1.484,2.233,3.987,3.575,6.669,3.575h66.061c2.682,0,5.185-1.342,6.669-3.576
				c1.485-2.233,1.753-5.061,0.714-7.533L132.869,196.402z M104.504,270.154l20.981-49.967l20.983,49.967H104.504z"/>
            <path d="M391.024,297.109c-10.545-4.867-23.468-7.546-36.385-7.546c-12.799,0-23.137,2.652-30.723,7.886
				c-8.529,5.882-13.039,14.638-13.039,25.32v0.681c0,18.028,14.576,30.142,36.271,30.142c28.573,0,48.528-16.456,48.528-40.017
				v-9.194C395.676,301.257,393.86,298.418,391.024,297.109z M379.659,313.574c0,14.355-13.065,24-32.512,24
				c-18.794,0-20.255-10.811-20.255-14.126v-0.681c0-14.955,17.383-17.189,27.745-17.189c8.778,0,17.481,1.466,25.021,4.174V313.574
				z"/>
            <polygon points="512,116.318 512,100.301 441.012,100.301 441.012,116.318 468.498,116.318 468.498,395.682 441.012,395.682 
				441.012,411.699 512,411.699 512,395.682 484.514,395.682 484.514,116.318 			"/>
            <path d="M444.714,272.032h-0.002c0-27.734-7.434-49.231-22.094-63.892c-15.112-15.113-37.755-22.776-67.296-22.776
				c-23.692,0-42.517,3.098-61.043,10.045c-11.456,4.297-19.154,15.385-19.154,27.589c0,16.328,12.938,29.118,29.456,29.118
				c3.326,0,6.212-0.506,9.944-1.744c10.268-3.18,21.163-4.725,33.304-4.725c11.601,0,26.52,1.979,30.268,17.346
				c-9.498-2.49-21.012-4.419-35.717-4.419c-24.162,0-43.59,5.295-57.745,15.738c-15.579,11.492-23.814,28.954-23.814,50.497v0.681
				c0,19.555,7.372,36.019,21.319,47.615c12.592,10.471,30.118,16.237,49.346,16.237c20.081,0,37.254-5.554,51.23-16.539
				c5.202,8.626,15.186,15.177,28.791,15.177c18.62,0,33.207-14.437,33.207-32.866V272.032z M411.505,371.967
				c-8.102,0-16.847-5.139-16.847-13.443v-0.34c0-3.313-2.041-6.286-5.135-7.474c-3.094-1.191-6.599-0.349-8.82,2.11
				c-12.455,13.802-28.555,20.511-49.218,20.511c-40.336,0-54.649-25.769-54.649-47.835v-0.681
				c0-43.695,41.065-50.219,65.542-50.219c18.792,0,31.3,3.393,42.018,7.06c2.447,0.837,5.146,0.441,7.249-1.062
				s3.352-3.929,3.352-6.516v-3.065c0-26.296-17.193-41.379-47.169-41.379c-13.805,0-26.277,1.789-38.128,5.468
				c-0.054,0.017-0.108,0.034-0.16,0.051c-2.39,0.798-3.586,0.948-4.96,0.948c-7.536,0-13.439-5.755-13.439-13.102
				c0-5.566,3.522-10.628,8.76-12.593c16.645-6.241,33.736-9.024,55.419-9.024c25.14,0,43.971,6.084,55.971,18.085
				c11.548,11.548,17.404,29.234,17.404,52.566v83.084h0.001C428.695,364.566,421.145,371.967,411.505,371.967z"/>
		</g>
	</g>
</g>
    <g>
</g>
    <g>
</g>
    <g>
</g>
    <g>
</g>
    <g>
</g>
    <g>
</g>
    <g>
</g>
    <g>
</g>
    <g>
</g>
    <g>
</g>
    <g>
</g>
    <g>
</g>
    <g>
</g>
    <g>
</g>
    <g>
</g>
</svg>
