<svg xmlns="http://www.w3.org/2000/svg" viewBox="0 0 50 50">
    <path style="line-height:normal;text-indent:0;text-align:start;text-decoration-line:none;text-decoration-style:solid;text-decoration-color:#000;text-transform:none;block-progression:tb;isolation:auto;mix-blend-mode:normal" d="M 13 3 C 7.4886661 3 3 7.4886661 3 13 L 3 37 C 3 42.511334 7.4886661 47 13 47 L 37 47 C 42.511334 47 47 42.511334 47 37 L 47 13 C 47 7.4886661 42.511334 3 37 3 L 13 3 z M 13 5 L 37 5 C 41.430666 5 45 8.5693339 45 13 L 45 37 C 45 41.430666 41.430666 45 37 45 L 13 45 C 8.5693339 45 5 41.430666 5 37 L 5 13 C 5 12.723083 5.0137913 12.449214 5.0410156 12.179688 C 5.4493799 8.1367924 8.8462505 5 13 5 z M 18 17 L 18 33 L 20 33 L 20 26 L 30 26 L 30 33 L 32 33 L 32 17 L 30 17 L 30 24 L 20 24 L 20 17 L 18 17 z" font-weight="400" font-family="sans-serif" white-space="normal" overflow="visible"></path>
</svg>