<?xml version='1.0' encoding='iso-8859-1'?>
<svg version="1.1" xmlns="http://www.w3.org/2000/svg" viewBox="0 0 470 470" xmlns:xlink="http://www.w3.org/1999/xlink" enable-background="new 0 0 470 470">
  <g>
    <path d="m270.998,127.087v65.208c0,4.143 3.358,7.5 7.5,7.5s7.5-3.357 7.5-7.5v-65.208c0-4.143-3.358-7.5-7.5-7.5s-7.5,3.357-7.5,7.5z"/>
    <path d="m467.803,435.983l-58.542-58.543c-1.406-1.406-3.314-2.196-5.303-2.196s-3.897,0.79-5.303,2.196l-5.303,5.303-10.845-10.844c14.635-17.059 23.492-39.214 23.492-63.401 0-53.762-43.738-97.5-97.5-97.5s-97.5,43.738-97.5,97.5 43.738,97.5 97.5,97.5c24.187,0 46.342-8.856 63.402-23.492l10.845,10.844-5.303,5.303c-2.929,2.93-2.929,7.678 0,10.607l58.542,58.542c1.464,1.464 3.384,2.196 5.303,2.196 1.919,0 3.839-0.732 5.303-2.196l21.213-21.213c1.407-1.407 2.197-3.314 2.197-5.304s-0.791-3.894-2.198-5.302zm-241.805-127.485c0-45.49 37.009-82.5 82.5-82.5s82.5,37.01 82.5,82.5-37.009,82.5-82.5,82.5-82.5-37.01-82.5-82.5zm215.289,143.396l-47.936-47.936 5.301-5.302c0.005-0.005 5.306-5.306 5.306-5.306l47.936,47.937-10.607,10.607z"/>
    <path d="m229.219,390.998h-214.219v-375.998h196.411v82.087c0,4.143 3.358,7.5 7.5,7.5h82.087v83.911c0,4.143 3.358,7.5 7.5,7.5s7.5-3.357 7.5-7.5v-91.411c0-0.251-0.013-0.501-0.038-0.749-0.018-0.184-0.05-0.365-0.081-0.545-0.011-0.06-0.016-0.122-0.028-0.182-0.043-0.215-0.098-0.425-0.159-0.632-0.007-0.025-0.012-0.052-0.02-0.077-0.065-0.213-0.141-0.421-0.224-0.625-0.008-0.021-0.015-0.043-0.023-0.064-0.081-0.195-0.173-0.384-0.269-0.57-0.016-0.031-0.029-0.063-0.045-0.094-0.093-0.173-0.196-0.339-0.301-0.504-0.027-0.042-0.049-0.086-0.077-0.127-0.103-0.154-0.216-0.3-0.33-0.446-0.037-0.048-0.07-0.098-0.109-0.145-0.142-0.173-0.294-0.338-0.451-0.498-0.015-0.015-0.027-0.031-0.042-0.046l-89.587-89.587c-0.018-0.018-0.038-0.033-0.057-0.051-0.156-0.153-0.317-0.301-0.486-0.44-0.055-0.045-0.113-0.083-0.169-0.126-0.138-0.107-0.275-0.214-0.42-0.311-0.051-0.034-0.105-0.062-0.156-0.095-0.156-0.099-0.312-0.197-0.475-0.284-0.036-0.019-0.074-0.035-0.111-0.053-0.181-0.094-0.365-0.183-0.554-0.262-0.024-0.01-0.049-0.017-0.074-0.027-0.202-0.081-0.406-0.157-0.616-0.221-0.027-0.008-0.054-0.013-0.081-0.021-0.206-0.06-0.415-0.115-0.628-0.158-0.063-0.013-0.128-0.018-0.192-0.029-0.177-0.031-0.354-0.062-0.536-0.08-0.247-0.025-0.497-0.038-0.748-0.038h-211.411c-4.142,0-7.5,3.357-7.5,7.5v390.998c0,4.143 3.358,7.5 7.5,7.5h221.719c4.142,0 7.5-3.357 7.5-7.5s-3.358-7.5-7.5-7.5zm-2.808-365.392l63.98,63.98h-63.98v-63.98z"/>
    <path d="m308.498,240.998c-37.22,0-67.5,30.28-67.5,67.5s30.28,67.5 67.5,67.5 67.5-30.28 67.5-67.5-30.28-67.5-67.5-67.5zm0,120c-28.949,0-52.5-23.552-52.5-52.5s23.551-52.5 52.5-52.5 52.5,23.552 52.5,52.5-23.551,52.5-52.5,52.5z"/>
    <path d="m112.114,191.408l63.189,66.672c1.416,1.494 3.384,2.341 5.443,2.341s4.027-0.847 5.443-2.341l43.917-46.337 3.736,3.942c2.849,3.006 7.596,3.135 10.603,0.284 3.006-2.849 3.134-7.596 0.285-10.603l-9.18-9.687c-1.417-1.494-3.385-2.341-5.444-2.341s-4.027,0.847-5.443,2.341l-43.917,46.338-63.189-66.672c-1.416-1.494-3.384-2.341-5.443-2.341s-4.027,0.847-5.443,2.341l-74.614,78.726c-1.321,1.394-2.057,3.239-2.057,5.159v109.267c0,4.143 3.358,7.5 7.5,7.5h167.107c4.142,0 7.5-3.357 7.5-7.5s-3.358-7.5-7.5-7.5h-159.607v-98.777l67.114-70.812z"/>
    <path d="m149.146,160.866c0,17.424 14.175,31.6 31.6,31.6s31.6-14.176 31.6-31.6-14.176-31.6-31.6-31.6-31.6,14.176-31.6,31.6zm48.2,0c0,9.153-7.447,16.6-16.6,16.6-9.153,0-16.6-7.446-16.6-16.6s7.447-16.6 16.6-16.6c9.153,0.001 16.6,7.447 16.6,16.6z"/>
    <path d="M188.911,30H37.5c-4.142,0-7.5,3.357-7.5,7.5v178.12c0,4.143,3.358,7.5,7.5,7.5s7.5-3.357,7.5-7.5V45h143.911   c4.142,0,7.5-3.357,7.5-7.5S193.053,30,188.911,30z"/>
  </g>
</svg>
