<?xml version='1.0' encoding='iso-8859-1'?>
<svg version="1.1" xmlns="http://www.w3.org/2000/svg" viewBox="0 0 471 471" xmlns:xlink="http://www.w3.org/1999/xlink" enable-background="new 0 0 471 471">
  <g>
    <path d="m89.21,155.657c22.143,0 40.157-18.014 40.157-40.157s-18.014-40.157-40.157-40.157-40.156,18.014-40.156,40.157 18.014,40.157 40.156,40.157zm0-65.314c13.872,0 25.157,11.285 25.157,25.157s-11.285,25.157-25.157,25.157-25.156-11.285-25.156-25.157 11.285-25.157 25.156-25.157z"/>
    <path d="M116,231c48.01,0,90.648-29.465,107.768-73.878h74.815l30.047,30.047c2.929,2.929,7.678,2.929,10.606,0l26.941-26.941   l26.941,26.941c1.419,1.419,3.358,2.205,5.354,2.197c2.007-0.014,3.924-0.832,5.324-2.27l64.578-66.371   c2.815-2.894,2.835-7.496,0.046-10.413l-32.615-34.115c-1.415-1.48-3.373-2.317-5.421-2.317l-205.151-0.002   c-8.693-20.717-22.732-38.481-40.841-51.608C164.294,7.701,140.644,0,116,0C52.313,0,0.5,51.813,0.5,115.5S52.313,231,116,231z    M116,15c42.771,0,81.794,27.724,97.103,68.987c1.091,2.94,3.896,4.891,7.032,4.891l207.045,0.002l25.401,26.569l-54.231,55.737   l-26.868-26.868c-1.406-1.407-3.314-2.197-5.303-2.197s-3.897,0.79-5.303,2.197l-26.941,26.941l-26.941-26.941   c-1.406-1.407-3.314-2.197-5.303-2.197h-83.196c-3.229,0-6.097,2.067-7.116,5.132C197.694,188.373,159.365,216,116,216   c-55.416,0-100.5-45.084-100.5-100.5S60.584,15,116,15z"/>
    <path d="m224,122.996h195.69c4.142,0 7.5-3.358 7.5-7.5s-3.358-7.5-7.5-7.5h-195.69c-4.142,0-7.5,3.358-7.5,7.5s3.358,7.5 7.5,7.5z"/>
    <path d="M8,311h141.25c4.142,0,7.5-3.358,7.5-7.5v-40c0-4.142-3.358-7.5-7.5-7.5H8c-4.142,0-7.5,3.358-7.5,7.5v40   C0.5,307.642,3.858,311,8,311z M15.5,271h126.25v25H15.5V271z"/>
    <path d="m463,256h-91.25c-4.142,0-7.5,3.358-7.5,7.5v40c0,4.142 3.358,7.5 7.5,7.5h91.25c4.142,0 7.5-3.358 7.5-7.5v-40c0-4.142-3.358-7.5-7.5-7.5zm-7.5,40h-76.25v-25h76.25v25z"/>
    <path d="m349.25,303.5v-40c0-4.142-3.358-7.5-7.5-7.5h-162.5c-4.142,0-7.5,3.358-7.5,7.5v40c0,4.142 3.358,7.5 7.5,7.5h162.5c4.142,0 7.5-3.358 7.5-7.5zm-15-7.5h-147.5v-25h147.5v25z"/>
    <path d="m8,391h91.25c4.142,0 7.5-3.358 7.5-7.5v-40c0-4.142-3.358-7.5-7.5-7.5h-91.25c-4.142,0-7.5,3.358-7.5,7.5v40c0,4.142 3.358,7.5 7.5,7.5zm7.5-40h76.25v25h-76.25v-25z"/>
    <path d="m463,336h-181.25c-4.142,0-7.5,3.358-7.5,7.5v40c0,4.142 3.358,7.5 7.5,7.5h181.25c4.142,0 7.5-3.358 7.5-7.5v-40c0-4.142-3.358-7.5-7.5-7.5zm-7.5,40h-166.25v-25h166.25v25z"/>
    <path d="m129.25,336c-4.142,0-7.5,3.358-7.5,7.5v40c0,4.142 3.358,7.5 7.5,7.5h122.5c4.142,0 7.5-3.358 7.5-7.5v-40c0-4.142-3.358-7.5-7.5-7.5h-122.5zm115,40h-107.5v-25h107.5v25z"/>
    <path d="m179.25,416h-171.25c-4.142,0-7.5,3.358-7.5,7.5v40c0,4.142 3.358,7.5 7.5,7.5h171.25c4.142,0 7.5-3.358 7.5-7.5v-40c0-4.142-3.358-7.5-7.5-7.5zm-7.5,40h-156.25v-25h156.25v25z"/>
    <path d="m463,416h-141.25c-4.142,0-7.5,3.358-7.5,7.5v40c0,4.142 3.358,7.5 7.5,7.5h141.25c4.142,0 7.5-3.358 7.5-7.5v-40c0-4.142-3.358-7.5-7.5-7.5zm-7.5,40h-126.25v-25h126.25v25z"/>
    <path d="m291.75,416h-82.5c-4.142,0-7.5,3.358-7.5,7.5v40c0,4.142 3.358,7.5 7.5,7.5h82.5c4.142,0 7.5-3.358 7.5-7.5v-40c0-4.142-3.358-7.5-7.5-7.5zm-7.5,40h-67.5v-25h67.5v25z"/>
  </g>
</svg>
