<?xml version='1.0' encoding='iso-8859-1'?>
<svg version="1.1" xmlns="http://www.w3.org/2000/svg" viewBox="0 0 469.898 469.898" xmlns:xlink="http://www.w3.org/1999/xlink" enable-background="new 0 0 469.898 469.898">
  <g>
    <path d="m242.636,360.566l-66.81,66.81c-17.781,17.781-41.422,27.573-66.568,27.573-25.146,0-48.788-9.792-66.568-27.573-36.706-36.706-36.706-96.43 0-133.136l125.775-125.775c17.781-17.781 41.422-27.573 66.568-27.573s48.787,9.792 66.568,27.573c10.373,10.373 18.182,23.047 22.772,36.861l-59.524,59.524c-8.009,8.009-18.658,12.42-29.984,12.42s-21.976-4.411-29.985-12.42c-4.04-4.041-7.167-8.754-9.295-14.011-1.554-3.84-5.926-5.692-9.766-4.138-3.84,1.554-5.692,5.927-4.138,9.766 2.887,7.131 7.124,13.52 12.593,18.989 10.843,10.842 25.259,16.813 40.592,16.813s29.749-5.971 40.591-16.813l125.773-125.774c10.843-10.842 16.814-25.258 16.814-40.591s-5.971-29.749-16.814-40.591c-10.842-10.842-25.257-16.813-40.591-16.813-15.333,0-29.749,5.971-40.591,16.813l-39.713,39.713c-2.929,2.929-2.929,7.678 0,10.606 2.929,2.929 7.678,2.929 10.606,0l39.713-39.713c8.009-8.009 18.658-12.42 29.984-12.42s21.976,4.411 29.984,12.419c8.009,8.01 12.42,18.658 12.42,29.985s-4.411,21.975-12.42,29.985l-54.589,54.589c-5.466-13.324-13.563-25.54-23.828-35.805-42.554-42.555-111.795-42.555-154.349,0l-125.772,125.775c-42.554,42.554-42.554,111.794 0,154.349 21.277,21.277 49.226,31.916 77.174,31.916 27.949,0 55.898-10.638 77.175-31.916l66.81-66.81c2.929-2.929 2.929-7.678 0-10.606-2.929-2.93-7.678-2.93-10.607-0.001z"/>
    <path d="m437.814,31.916c-42.554-42.555-111.796-42.554-154.349,0l-66.893,66.894c-2.929,2.929-2.929,7.678 0,10.606 2.929,2.929 7.678,2.929 10.606,0l66.894-66.894c36.707-36.706 96.431-36.706 133.136,0 36.706,36.706 36.706,96.43 0,133.136l-125.775,125.775c-17.781,17.781-41.422,27.573-66.568,27.573s-48.787-9.792-66.568-27.573c-10.375-10.375-18.181-23.046-22.772-36.861l59.523-59.523c8.009-8.009 18.658-12.42 29.984-12.42 11.326,0 21.975,4.411 29.985,12.42 4.041,4.04 7.168,8.753 9.296,14.01 1.554,3.84 5.928,5.691 9.766,4.138 3.84-1.554 5.692-5.927 4.138-9.766-2.887-7.131-7.124-13.52-12.594-18.989-10.843-10.842-25.258-16.813-40.591-16.813s-29.749,5.971-40.591,16.813l-61.31,61.31c-1.103,0.652-2.002,1.563-2.634,2.634l-61.83,61.83c-10.843,10.842-16.814,25.258-16.814,40.591s5.971,29.749 16.814,40.591c10.842,10.842 25.257,16.813 40.59,16.813 15.333,0 29.749-5.971 40.591-16.813l39.655-39.655c2.929-2.929 2.929-7.678 0-10.606-2.929-2.929-7.678-2.929-10.606,0l-39.655,39.655c-8.009,8.009-18.658,12.42-29.985,12.42s-21.975-4.411-29.984-12.419c-8.009-8.01-12.42-18.658-12.42-29.985s4.411-21.975 12.42-29.985l54.588-54.588c5.466,13.324 13.561,25.537 23.828,35.805 20.614,20.614 48.022,31.967 77.174,31.967 29.153,0 56.561-11.353 77.174-31.967l125.775-125.775c42.556-42.555 42.556-111.795 0.002-154.349z"/>
  </g>
</svg>
