<?xml version="1.0" encoding="iso-8859-1"?>
<!-- Generator: Adobe Illustrator 19.0.0, SVG Export Plug-In . SVG Version: 6.00 Build 0)  -->
<svg version="1.1" id="Layer_1" xmlns="http://www.w3.org/2000/svg" xmlns:xlink="http://www.w3.org/1999/xlink" x="0px" y="0px"
     viewBox="0 0 512 512" style="enable-background:new 0 0 512 512;" xml:space="preserve">
<g>
	<g>
		<path d="M406.393,131.594c4.58,0,8.294-3.713,8.294-8.294V34.834C414.687,15.627,399.06,0,379.853,0H43.68
			C24.473,0,8.847,15.627,8.847,34.834v442.333C8.847,496.373,24.473,512,43.68,512h336.173c19.207,0,34.834-15.627,34.834-34.834
			v-88.468c0-4.581-3.713-8.294-8.294-8.294c-4.58,0-8.294,3.713-8.294,8.294v88.468c0,10.061-8.185,18.246-18.246,18.246H43.68
			c-10.061,0-18.246-8.185-18.246-18.246V34.834c0-10.061,8.185-18.246,18.246-18.246h336.173c10.061,0,18.246,8.185,18.246,18.246
			V123.3C398.099,127.881,401.813,131.594,406.393,131.594z"/>
	</g>
</g>
    <g>
	<g>
		<path d="M229.46,35.387h-35.387c-4.58,0-8.294,3.713-8.294,8.294c0,4.58,3.713,8.294,8.294,8.294h35.387
			c4.58,0,8.294-3.713,8.294-8.294C237.754,39.1,234.04,35.387,229.46,35.387z"/>
	</g>
</g>
    <g>
	<g>
		<path d="M158.687,35.431c-4.58,0-8.294,3.758-8.294,8.338c0,4.58,3.713,8.294,8.294,8.294c4.58,0,8.294-3.713,8.294-8.294V43.68
			C166.981,39.1,163.267,35.431,158.687,35.431z"/>
	</g>
</g>
    <g>
	<g>
		<path d="M229.46,460.026h-35.387c-4.58,0-8.294,3.713-8.294,8.294c0,4.58,3.713,8.294,8.294,8.294h35.387
			c4.58,0,8.294-3.713,8.294-8.294C237.754,463.739,234.04,460.026,229.46,460.026z"/>
	</g>
</g>
    <g>
	<g>
		<path d="M371.002,131.594c4.58,0,8.294-3.713,8.294-8.294V79.066c0-4.58-3.713-8.294-8.294-8.294H52.523
			c-4.58,0-8.294,3.713-8.294,8.294v353.866c0,4.58,3.713,8.294,8.294,8.294h318.479c4.58,0,8.294-3.713,8.294-8.294V388.7
			c0-4.58-3.713-8.294-8.294-8.294c-4.58,0-8.294,3.713-8.294,8.294v35.938H60.816V87.36h301.892V123.3
			C362.708,127.881,366.422,131.594,371.002,131.594z"/>
	</g>
</g>
    <g>
	<g>
		<path d="M273.693,362.713H202.92c-4.58,0-8.294,3.713-8.294,8.294s3.713,8.294,8.294,8.294h70.773c4.58,0,8.294-3.713,8.294-8.294
			S278.274,362.713,273.693,362.713z"/>
	</g>
</g>
    <g>
	<g>
		<path d="M167.533,362.713H149.84c-4.58,0-8.294,3.713-8.294,8.294s3.713,8.294,8.294,8.294h17.693c4.58,0,8.294-3.713,8.294-8.294
			S172.114,362.713,167.533,362.713z"/>
	</g>
</g>
    <g>
	<g>
		<path d="M211.767,141.546c-24.085,0-43.68,19.595-43.68,43.68c0,24.085,19.595,43.68,43.68,43.68s43.68-19.595,43.68-43.68
			C255.447,161.142,235.852,141.546,211.767,141.546z M211.767,212.32c-14.939,0-27.093-12.154-27.093-27.093
			c0-14.939,12.154-27.093,27.093-27.093s27.093,12.154,27.093,27.093C238.86,200.165,226.705,212.32,211.767,212.32z"/>
	</g>
</g>
    <g>
	<g>
		<path d="M397.546,150.393c-58.232,0-105.607,47.375-105.607,105.607c0,30.554,12.938,58.982,35.739,79.066
			c-11.441,18.732-23.858,29.525-23.985,29.633c-2.733,2.334-3.651,6.163-2.276,9.483c1.292,3.116,4.328,5.119,7.659,5.119
			c0.218,0,0.438-0.009,0.658-0.025c1.365-0.108,32.508-2.768,60.135-21.346c9.004,2.442,18.295,3.678,27.677,3.678
			c58.232,0,105.607-47.375,105.607-105.607C503.153,197.768,455.778,150.393,397.546,150.393z M397.546,345.019
			c-9.084,0-18.064-1.373-26.689-4.081c-2.51-0.787-5.247-0.337-7.374,1.214c-10.211,7.453-21.42,12.265-31.044,15.345
			c4.305-5.678,8.903-12.505,13.214-20.384c1.962-3.586,1.018-8.067-2.223-10.557c-22.182-17.041-34.903-42.758-34.903-70.556
			c0-49.086,39.934-89.019,89.019-89.019c49.086,0,89.019,39.934,89.019,89.019S446.632,345.019,397.546,345.019z"/>
	</g>
</g>
    <g>
	<g>
		<path d="M440.943,212.604c-4.907-4.91-11.432-7.613-18.375-7.613c-6.941,0-13.468,2.704-18.376,7.611
			c-8.08,8.079-9.695,20.193-4.888,29.911l-45.156,45.156c-3.239,3.239-3.239,8.491,0,11.728c1.619,1.619,3.742,2.43,5.864,2.43
			c2.122,0,4.245-0.809,5.864-2.43l6.646-6.646l6.647,6.646c1.619,1.62,3.742,2.43,5.864,2.43c2.122,0,4.245-0.809,5.864-2.43
			c3.239-3.239,3.239-8.491,0-11.728l-6.647-6.646l26.78-26.78c3.625,1.793,7.576,2.711,11.535,2.711
			c6.655,0,13.31-2.533,18.376-7.599c4.908-4.908,7.611-11.434,7.611-18.376C448.554,224.038,445.85,217.512,440.943,212.604z
			 M429.215,237.624c-3.665,3.665-9.628,3.664-13.293,0c-3.665-3.665-3.665-9.628,0-13.293c1.775-1.775,4.136-2.754,6.647-2.754
			c2.511,0,4.871,0.978,6.646,2.754c1.775,1.775,2.754,4.135,2.754,6.646S430.99,235.85,429.215,237.624z"/>
	</g>
</g>
    <g>
	<g>
		<path d="M255.239,245.15c-6.99-5.518-17.344-4.427-23.569,2.483c-5.184,5.753-12.254,8.921-19.904,8.921
			s-14.72-3.168-19.904-8.921c-6.226-6.909-16.58-8-23.569-2.483c-16.999,13.415-26.748,33.492-26.748,55.084v26.54
			c0,4.58,3.713,8.294,8.294,8.294h123.853c4.58,0,8.294-3.713,8.294-8.294v-26.54C281.987,278.642,272.238,258.564,255.239,245.15z
			 M265.4,318.479H158.134v-18.246c0-16.482,7.449-31.814,20.39-42.048c0.119-0.021,0.593,0.082,1.016,0.552
			c8.25,9.153,19.996,14.403,32.226,14.403c12.231,0,23.977-5.25,32.226-14.403c0.424-0.47,0.9-0.571,0.962-0.573l0.009,0.007
			c12.987,10.249,20.436,25.58,20.436,42.063V318.479z"/>
	</g>
</g>
    <g>
</g>
    <g>
</g>
    <g>
</g>
    <g>
</g>
    <g>
</g>
    <g>
</g>
    <g>
</g>
    <g>
</g>
    <g>
</g>
    <g>
</g>
    <g>
</g>
    <g>
</g>
    <g>
</g>
    <g>
</g>
    <g>
</g>
</svg>
