<?xml version='1.0' encoding='iso-8859-1'?>
<svg version="1.1" xmlns="http://www.w3.org/2000/svg" viewBox="0 0 470 470" xmlns:xlink="http://www.w3.org/1999/xlink" enable-background="new 0 0 470 470">
  <g>
    <path d="M452.159,16.363H17.841C8.003,16.363,0,24.366,0,34.204v329.205c0,9.838,8.003,17.841,17.841,17.841h163.807v57.387   h-70.739c-4.142,0-7.5,3.357-7.5,7.5s3.358,7.5,7.5,7.5h248.182c4.143,0,7.5-3.357,7.5-7.5s-3.357-7.5-7.5-7.5h-70.738V381.25   h163.807c9.838,0,17.841-8.003,17.841-17.841V34.204C470,24.366,461.997,16.363,452.159,16.363z M273.353,438.637h-76.705V381.25   h76.705V438.637z M455,363.409c0,1.54-1.301,2.841-2.841,2.841H17.841c-1.54,0-2.841-1.301-2.841-2.841V34.204   c0-1.54,1.301-2.841,2.841-2.841h434.318c1.54,0,2.841,1.301,2.841,2.841V363.409z"/>
    <path d="m431.478,305.228h-392.955c-4.142,0-7.5,3.357-7.5,7.5s3.358,7.5 7.5,7.5h392.955c4.143,0 7.5-3.357 7.5-7.5s-3.358-7.5-7.5-7.5z"/>
    <path d="m124.666,250.416c33.343,19.503 71.496,29.812 110.334,29.812 38.839,0 76.991-10.309 110.334-29.812 32.35-18.921 59.488-46.004 78.483-78.319 1.379-2.347 1.379-5.255 0-7.602-18.995-32.315-46.134-59.398-78.483-78.32-33.343-19.503-71.495-29.812-110.334-29.812s-76.992,10.309-110.334,29.812c-32.35,18.922-59.489,46.005-78.483,78.32-1.379,2.347-1.379,5.255 0,7.602 18.994,32.315 46.133,59.398 78.483,78.319zm107.413,14.764c-52.103-1.55-94.011-44.413-94.011-96.884 0-52.472 41.909-95.335 94.011-96.885 0.974-0.014 1.945-0.048 2.921-0.048 0.976,0 1.947,0.034 2.921,0.048 52.102,1.55 94.011,44.413 94.011,96.885 0,52.471-41.909,95.333-94.011,96.884-0.974,0.014-1.945,0.048-2.921,0.048s-1.947-0.034-2.921-0.048zm176.517-96.884c-23.162,37.494-57.726,66.025-97.629,82.126 22.103-20.46 35.965-49.702 35.965-82.126s-13.862-61.666-35.966-82.126c39.903,16.1 74.468,44.632 97.63,82.126zm-249.562-82.127c-22.104,20.461-35.966,49.703-35.966,82.127 0,32.423 13.862,61.665 35.966,82.126-39.903-16.101-74.467-44.631-97.629-82.126 23.161-37.495 57.725-66.026 97.629-82.127z"/>
    <path d="m284.918,168.295c0-7.135-1.488-14.044-4.423-20.536-1.705-3.773-6.146-5.451-9.923-3.745-3.774,1.706-5.451,6.148-3.745,9.923 2.051,4.538 3.091,9.368 3.091,14.358 0,19.254-15.664,34.918-34.918,34.918s-34.918-15.664-34.918-34.918 15.664-34.918 34.918-34.918c4.989,0 9.82,1.04 14.359,3.092 3.775,1.708 8.217,0.029 9.923-3.745s0.029-8.217-3.745-9.923c-6.493-2.936-13.403-4.424-20.537-4.424-27.525,0-49.918,22.394-49.918,49.918s22.393,49.918 49.918,49.918c27.524,0 49.918-22.394 49.918-49.918z"/>
  </g>
</svg>
