<?xml version='1.0' encoding='iso-8859-1'?>
<svg version="1.1" xmlns="http://www.w3.org/2000/svg" viewBox="0 0 470 470" xmlns:xlink="http://www.w3.org/1999/xlink" enable-background="new 0 0 470 470">
  <g>
    <path d="m156.17,280.228h157.66c4.143,0 7.5-3.357 7.5-7.5v-163.182c0-4.143-3.357-7.5-7.5-7.5h-36.33v-3.183c0-23.435-19.065-42.5-42.5-42.5s-42.5,19.065-42.5,42.5v3.183h-36.33c-4.143,0-7.5,3.357-7.5,7.5v163.182c-2.84217e-14,4.142 3.357,7.5 7.5,7.5zm51.33-181.365c0-15.163 12.337-27.5 27.5-27.5s27.5,12.337 27.5,27.5v3.183h-55v-3.183zm-43.83,18.183h28.83v12.5c0,4.143 3.357,7.5 7.5,7.5s7.5-3.357 7.5-7.5v-12.5h55v12.5c0,4.143 3.357,7.5 7.5,7.5s7.5-3.357 7.5-7.5v-12.5h28.83v148.182h-142.66v-148.182z"/>
    <path d="M452.159,16.363H17.841C8.003,16.363,0,24.366,0,34.204v329.205c0,9.838,8.003,17.841,17.841,17.841h163.807v57.387   h-70.738c-4.143,0-7.5,3.357-7.5,7.5s3.357,7.5,7.5,7.5h248.182c4.143,0,7.5-3.357,7.5-7.5s-3.357-7.5-7.5-7.5h-70.738V381.25   h163.807c9.838,0,17.841-8.003,17.841-17.841V34.204C470,24.366,461.997,16.363,452.159,16.363z M273.353,438.637h-76.705V381.25   h76.705V438.637z M455,363.409c0,1.54-1.301,2.841-2.841,2.841H17.841c-1.54,0-2.841-1.301-2.841-2.841V34.204   c0-1.54,1.301-2.841,2.841-2.841h434.318c1.54,0,2.841,1.301,2.841,2.841V363.409z"/>
    <path d="m431.478,305.228h-392.956c-4.143,0-7.5,3.357-7.5,7.5s3.357,7.5 7.5,7.5h392.955c4.143,0 7.5-3.357 7.5-7.5s-3.357-7.5-7.499-7.5z"/>
  </g>
</svg>
