<?xml version="1.0" encoding="iso-8859-1"?>
<!-- Generator: Adobe Illustrator 19.0.0, SVG Export Plug-In . SVG Version: 6.00 Build 0)  -->
<svg version="1.1" id="Capa_1" xmlns="http://www.w3.org/2000/svg" xmlns:xlink="http://www.w3.org/1999/xlink" x="0px" y="0px"
	 viewBox="0 0 480 480" style="enable-background:new 0 0 480 480;" xml:space="preserve">
<g>
	<g>
		<path d="M360,32h-72V8c0-4.418-3.582-8-8-8H88c-4.418,0-8,3.582-8,8v24H8c-4.418,0-8,3.582-8,8v432c0,4.418,3.582,8,8,8h352
			c4.418,0,8-3.582,8-8V40C368,35.582,364.418,32,360,32z M96,16h176v16H96V16z M96,48h176v32h-65.368
			c-4.411-12.499-18.12-19.056-30.619-14.645c-6.845,2.416-12.229,7.8-14.645,14.645H96V48z M352,464H16V48h64v40
			c0,4.418,3.582,8,8,8h80c4.418,0,8-3.582,8-8s3.582-8,8-8s8,3.582,8,8s3.582,8,8,8h80c4.418,0,8-3.582,8-8V48h64V464z"/>
	</g>
</g>
<g>
	<g>
		<path d="M80,112c-17.673,0-32,14.327-32,32s14.327,32,32,32s32-14.327,32-32S97.673,112,80,112z M80,160c-8.837,0-16-7.163-16-16
			s7.163-16,16-16s16,7.163,16,16S88.837,160,80,160z"/>
	</g>
</g>
<g>
	<g>
		<path d="M80,192c-17.673,0-32,14.327-32,32s14.327,32,32,32s32-14.327,32-32S97.673,192,80,192z M80,240c-8.837,0-16-7.163-16-16
			s7.163-16,16-16s16,7.163,16,16S88.837,240,80,240z"/>
	</g>
</g>
<g>
	<g>
		<path d="M312,120H200c-4.418,0-8,3.582-8,8s3.582,8,8,8h112c4.418,0,8-3.582,8-8S316.418,120,312,120z"/>
	</g>
</g>
<g>
	<g>
		<path d="M168,120h-32c-4.418,0-8,3.582-8,8s3.582,8,8,8h32c4.418,0,8-3.582,8-8S172.418,120,168,120z"/>
	</g>
</g>
<g>
	<g>
		<path d="M312,152h-64c-4.418,0-8,3.582-8,8s3.582,8,8,8h64c4.418,0,8-3.582,8-8S316.418,152,312,152z"/>
	</g>
</g>
<g>
	<g>
		<path d="M216,152h-80c-4.418,0-8,3.582-8,8s3.582,8,8,8h80c4.418,0,8-3.582,8-8S220.418,152,216,152z"/>
	</g>
</g>
<g>
	<g>
		<path d="M312,200h-32c-4.418,0-8,3.582-8,8s3.582,8,8,8h32c4.418,0,8-3.582,8-8S316.418,200,312,200z"/>
	</g>
</g>
<g>
	<g>
		<path d="M248,200H136c-4.418,0-8,3.582-8,8s3.582,8,8,8h112c4.418,0,8-3.582,8-8S252.418,200,248,200z"/>
	</g>
</g>
<g>
	<g>
		<path d="M312,232h-88c-4.418,0-8,3.582-8,8s3.582,8,8,8h88c4.418,0,8-3.582,8-8S316.418,232,312,232z"/>
	</g>
</g>
<g>
	<g>
		<path d="M192,232h-56c-4.418,0-8,3.582-8,8s3.582,8,8,8h56c4.418,0,8-3.582,8-8S196.418,232,192,232z"/>
	</g>
</g>
<g>
	<g>
		<path d="M448,32.8V32c0-17.673-14.327-32-32-32c-17.673,0-32,14.327-32,32v384c0,0.104,0.056,0.192,0.056,0.288
			c0.034,0.842,0.201,1.674,0.496,2.464c0.072,0.176,0.112,0.36,0.184,0.528c0.072,0.168,0.056,0.2,0.104,0.296L408,465.888V472
			c0,4.418,3.582,8,8,8s8-3.582,8-8v-6.112l23.2-46.312c0.048-0.096,0.056-0.2,0.104-0.296c0.048-0.096,0.112-0.352,0.184-0.528
			c0.295-0.79,0.462-1.622,0.496-2.464c0-0.104,0.056-0.184,0.056-0.288V49.472C457.579,52.863,463.964,61.876,464,72v72
			c0,4.418,3.582,8,8,8s8-3.582,8-8V72C479.976,52.999,466.611,36.627,448,32.8z M416,446.112L404.944,424h22.112L416,446.112z
			 M432,408h-32V184h32V408z M432,168h-32V48h32V168z M400,32c0-8.837,7.163-16,16-16s16,7.163,16,16H400z"/>
	</g>
</g>
<g>
	<g>
		<path d="M240,312v-16h-24c-2.122,0-4.156,0.844-5.656,2.344l-6.144,6.144c-30.639-37.727-86.061-43.472-123.787-12.833
			S36.941,377.716,67.58,415.443c30.639,37.727,86.061,43.472,123.787,12.833c0.755-0.613,1.499-1.238,2.233-1.875
			c3.797-3.345,7.298-7.012,10.464-10.96l6.232,6.232c1.514,1.506,3.568,2.345,5.704,2.328h24v-16h-20.688l-6.104-6.104
			c14.353-26.114,14.392-57.746,0.104-83.896l6-6H240z M201.384,390.072l-11.728-11.728l-11.312,11.312l14.456,14.448
			c-1.36,1.744-2.776,3.448-4.296,5.072L147.312,368h60.24C206.692,375.64,204.609,383.093,201.384,390.072z M128,352
			c-4.418,0.001-7.999,3.583-7.998,8.002c0,2.121,0.843,4.154,2.342,5.654L176.28,419.6c-32.925,22.297-77.691,13.681-99.988-19.244
			c-22.297-32.925-13.681-77.691,19.244-99.988c31.434-21.287,73.997-14.51,97.264,15.488l-14.488,14.488l11.312,11.312
			l11.696-11.688c3.252,6.96,5.357,14.4,6.232,22.032H128z"/>
	</g>
</g>
<g>
	<g>
		<path d="M288,272c-17.673,0-32,14.327-32,32c0,17.673,14.327,32,32,32c17.673,0,32-14.327,32-32C320,286.327,305.673,272,288,272z
			 M288,320c-8.837,0-16-7.163-16-16s7.163-16,16-16s16,7.163,16,16S296.837,320,288,320z"/>
	</g>
</g>
<g>
	<g>
		<path d="M288,384c-17.673,0-32,14.327-32,32c0,17.673,14.327,32,32,32c17.673,0,32-14.327,32-32C320,398.327,305.673,384,288,384z
			 M288,432c-8.837,0-16-7.163-16-16s7.163-16,16-16s16,7.163,16,16S296.837,432,288,432z"/>
	</g>
</g>
<g>
</g>
<g>
</g>
<g>
</g>
<g>
</g>
<g>
</g>
<g>
</g>
<g>
</g>
<g>
</g>
<g>
</g>
<g>
</g>
<g>
</g>
<g>
</g>
<g>
</g>
<g>
</g>
<g>
</g>
</svg>
