<?xml version="1.0" encoding="iso-8859-1"?>
<!-- Generator: Adobe Illustrator 19.0.0, SVG Export Plug-In . SVG Version: 6.00 Build 0)  -->
<svg version="1.1" id="Layer_1" xmlns="http://www.w3.org/2000/svg" xmlns:xlink="http://www.w3.org/1999/xlink" x="0px" y="0px"
	 viewBox="0 0 512.013 512.013" style="enable-background:new 0 0 512.013 512.013;" xml:space="preserve">
<g>
	<g>
		<path d="M387.79,439.815c-5.824-0.597-11.093,3.755-11.627,9.621l-1.749,18.731L257.23,454.791
			c-5.717-0.704-11.157,3.52-11.819,9.387c-0.683,5.845,3.541,11.136,9.387,11.797l128,14.635c0.405,0.043,0.811,0.064,1.216,0.064
			c2.432,0,4.821-0.832,6.72-2.389c2.219-1.792,3.627-4.416,3.904-7.275l2.773-29.568
			C397.966,445.575,393.635,440.369,387.79,439.815z"/>
	</g>
</g>
<g>
	<g>
		<path d="M257.272,109.255L54.606,85.404c-6.059-0.704-11.136,3.456-11.861,9.28L0.078,436.017
			c-0.341,2.816,0.448,5.675,2.219,7.915c1.749,2.24,4.331,3.691,7.168,4.011l114.56,13.099c0.427,0.043,0.811,0.064,1.237,0.064
			c5.333,0,9.963-4.011,10.581-9.451c0.683-5.845-3.541-11.136-9.387-11.797L22.606,427.975l40.021-320.149l192.149,22.613
			c6.101,0.789,11.179-3.499,11.84-9.344C267.32,115.249,263.118,109.937,257.272,109.255z"/>
	</g>
</g>
<g>
	<g>
		<path d="M370.211,99.143c-4.16-4.16-10.923-4.16-15.083,0l-53.333,53.333c-4.16,4.16-4.16,10.923,0,15.083
			c2.091,2.069,4.821,3.115,7.552,3.115c2.731,0,5.461-1.045,7.531-3.115l53.333-53.333
			C374.371,110.065,374.371,103.303,370.211,99.143z"/>
	</g>
</g>
<g>
	<g>
		<path d="M511.928,436.039L469.262,94.705c-0.725-5.824-6.101-9.963-11.84-9.28l-29.397,3.456
			c-5.867,0.683-10.048,5.995-9.344,11.84c0.683,5.845,6.016,10.069,11.84,9.344l18.88-2.219l40.021,320.107l-351.808,40.213
			l-30.016-320.128l260.544-30.635c5.867-0.683,10.048-5.995,9.344-11.84c-0.683-5.845-6.101-10.176-11.84-9.344L94.755,128.092
			c-5.739,0.661-9.899,5.803-9.365,11.584l32,341.333c0.277,2.837,1.685,5.483,3.904,7.275c1.899,1.557,4.288,2.389,6.72,2.389
			c0.405,0,0.811-0.021,1.195-0.043l373.333-42.667c2.837-0.341,5.419-1.771,7.168-4.011
			C511.48,441.713,512.291,438.855,511.928,436.039z"/>
	</g>
</g>
<g>
	<g>
		<path d="M394.68,21.34c-29.419,0-53.333,23.936-53.333,53.333s23.915,53.333,53.333,53.333s53.333-23.936,53.333-53.333
			S424.099,21.34,394.68,21.34z M394.68,106.673c-17.643,0-32-14.357-32-32c0-17.643,14.357-32,32-32s32,14.357,32,32
			C426.68,92.316,412.323,106.673,394.68,106.673z"/>
	</g>
</g>
<g>
</g>
<g>
</g>
<g>
</g>
<g>
</g>
<g>
</g>
<g>
</g>
<g>
</g>
<g>
</g>
<g>
</g>
<g>
</g>
<g>
</g>
<g>
</g>
<g>
</g>
<g>
</g>
<g>
</g>
</svg>
