<?xml version="1.0" encoding="iso-8859-1"?>
<!-- Generator: Adobe Illustrator 18.1.1, SVG Export Plug-In . SVG Version: 6.00 Build 0)  -->
<svg version="1.1" id="Capa_1" xmlns="http://www.w3.org/2000/svg" xmlns:xlink="http://www.w3.org/1999/xlink" x="0px" y="0px"
	 viewBox="0 0 80 80" style="enable-background:new 0 0 80 80;" xml:space="preserve">
<g id="_x37_7_Essential_Icons_66_">
	<path id="Toggle" d="M52.7,13h-26C12,13,0,25.1,0,40s12,27,26.7,27h26C67.8,67,80,54.9,80,40S67.8,13,52.7,13z M52.7,63h-26
		C14.2,63,4,52.7,4,40s10.2-23,22.7-23h26C65.3,17,76,27.5,76,40S65.3,63,52.7,63z M52.8,21C42.4,21,34,29.5,34,40s8.4,19,18.8,19
		C63.4,59,72,50.5,72,40S63.4,21,52.8,21z M52.8,55C44.7,55,38,48.3,38,40s6.7-15,14.8-15C61.1,25,68,31.9,68,40S61,55,52.8,55z"/>
</g>
<g>
</g>
<g>
</g>
<g>
</g>
<g>
</g>
<g>
</g>
<g>
</g>
<g>
</g>
<g>
</g>
<g>
</g>
<g>
</g>
<g>
</g>
<g>
</g>
<g>
</g>
<g>
</g>
<g>
</g>
</svg>
