<?xml version='1.0' encoding='iso-8859-1'?>
<svg version="1.1" xmlns="http://www.w3.org/2000/svg" viewBox="0 0 470 470" xmlns:xlink="http://www.w3.org/1999/xlink" enable-background="new 0 0 470 470">
  <g>
    <path d="m116.479,194.5h6.746v55.43c0,16.707 13.592,30.298 30.298,30.298h26.798c4.142,0 7.5-3.358 7.5-7.5v-55.728c0-4.142-3.358-7.5-7.5-7.5s-7.5,3.358-7.5,7.5v48.228h-19.298c-8.435,0-15.298-6.863-15.298-15.298v-55.43h71.107l157.947,45.066c0.677,0.193 1.369,0.288 2.057,0.288 1.612,0 3.202-0.52 4.518-1.513 1.878-1.417 2.982-3.634 2.982-5.987v-168.491c0-2.353-1.104-4.569-2.982-5.987-1.879-1.417-4.313-1.873-6.575-1.225l-157.947,45.065h-92.853c-12.856,0-23.315,10.459-23.315,23.315v46.152c0,12.858 10.459,23.317 23.315,23.317zm245.357,27.914l-143.956-41.074v-66.464l143.956-41.074v148.612zm-253.672-97.382c1.42109e-14-4.585 3.73-8.315 8.315-8.315h86.402v62.783h-86.402c-4.585,0-8.315-3.73-8.315-8.315v-46.153z"/>
    <path d="m452.159,16.364h-434.318c-9.838,0-17.841,8.003-17.841,17.841v329.205c0,9.837 8.003,17.841 17.841,17.841h163.807v57.386h-70.739c-4.142,0-7.5,3.358-7.5,7.5s3.358,7.5 7.5,7.5h248.182c4.142,0 7.5-3.358 7.5-7.5s-3.358-7.5-7.5-7.5h-70.739v-57.387h163.807c9.837,0 17.841-8.003 17.841-17.841v-329.204c0-9.838-8.003-17.841-17.841-17.841zm-178.807,422.272h-76.704v-57.386h76.704v57.386zm181.648-75.227c0,1.54-1.301,2.841-2.841,2.841h-434.318c-1.54,0-2.841-1.301-2.841-2.841v-329.204c0-1.54 1.301-2.841 2.841-2.841h434.318c1.54,0 2.841,1.301 2.841,2.841v329.204z"/>
    <path d="m431.477,305.227h-392.954c-4.142,0-7.5,3.358-7.5,7.5s3.358,7.5 7.5,7.5h392.954c4.142,0 7.5-3.358 7.5-7.5s-3.358-7.5-7.5-7.5z"/>
  </g>
</svg>
