<?xml version='1.0' encoding='iso-8859-1'?>
<svg version="1.1" xmlns="http://www.w3.org/2000/svg" viewBox="0 0 470 470" xmlns:xlink="http://www.w3.org/1999/xlink" enable-background="new 0 0 470 470">
  <g>
    <path d="M467.803,428.913L345.438,306.547c-2.929-2.929-7.678-2.929-10.606,0l-8.839,8.839l-17.796-17.796   C338.43,264.754,355,222.403,355,177.5c0-47.412-18.463-91.986-51.989-125.511S224.912,0,177.5,0S85.514,18.463,51.989,51.989   S0,130.088,0,177.5s18.463,91.986,51.989,125.511S130.088,355,177.5,355c44.903,0,87.254-16.57,120.091-46.803l17.796,17.796   l-8.839,8.839c-2.929,2.929-2.929,7.678,0,10.606l122.365,122.365c1.464,1.464,3.384,2.197,5.303,2.197s3.839-0.732,5.303-2.197   l28.284-28.284C470.732,436.59,470.732,431.841,467.803,428.913z M62.595,292.405C31.903,261.712,15,220.905,15,177.5   S31.903,93.288,62.595,62.595S134.095,15,177.5,15s84.212,16.903,114.905,47.595S340,134.095,340,177.5   s-16.903,84.212-47.595,114.905S220.905,340,177.5,340S93.288,323.097,62.595,292.405z M434.216,451.894L322.457,340.135   l17.678-17.678l111.759,111.759L434.216,451.894z"/>
    <path d="m177.5,140c-20.678,0-37.5,16.822-37.5,37.5s16.822,37.5 37.5,37.5 37.5-16.822 37.5-37.5-16.822-37.5-37.5-37.5zm0,60c-12.407,0-22.5-10.093-22.5-22.5s10.093-22.5 22.5-22.5 22.5,10.093 22.5,22.5-10.093,22.5-22.5,22.5z"/>
    <path d="m238.413,148.407l17.733-17.733c2.59-2.589 2.93-6.67 0.806-9.654-6.34-8.904-14.07-16.633-22.973-22.972-2.983-2.125-7.064-1.783-9.653,0.806l-17.733,17.733c-2.153-1.032-4.353-1.947-6.593-2.741v-25.078c0-3.663-2.646-6.79-6.258-7.396-5.421-0.911-10.886-1.372-16.242-1.372s-10.821,0.461-16.242,1.372c-3.612,0.606-6.258,3.733-6.258,7.396v25.078c-2.24,0.794-4.44,1.709-6.593,2.741l-17.733-17.733c-2.589-2.589-6.669-2.93-9.653-0.807-8.904,6.34-16.633,14.069-22.973,22.973-2.124,2.983-1.783,7.064 0.807,9.653l17.733,17.733c-1.032,2.153-1.947,4.353-2.741,6.593h-25.079c-3.663,0-6.79,2.646-7.396,6.258-0.911,5.422-1.372,10.887-1.372,16.243 0,5.355 0.461,10.82 1.372,16.242 0.606,3.612 3.733,6.258 7.396,6.258h25.079c0.794,2.24 1.708,4.44 2.741,6.593l-17.733,17.733c-2.59,2.589-2.93,6.67-0.806,9.654 6.34,8.903 14.069,16.632 22.972,22.972 2.984,2.125 7.064,1.783 9.654-0.806l17.733-17.733c2.152,1.032 4.353,1.947 6.593,2.741v25.079c0,3.663 2.646,6.79 6.258,7.396 5.421,0.91 10.886,1.372 16.242,1.372s10.821-0.461 16.242-1.372c3.612-0.606 6.258-3.733 6.258-7.396v-25.079c2.24-0.794 4.44-1.708 6.593-2.741l17.733,17.733c2.589,2.59 6.67,2.93 9.653,0.806 8.904-6.34 16.633-14.069 22.973-22.973 2.124-2.983 1.783-7.064-0.806-9.653l-17.733-17.733c1.032-2.152 1.947-4.353 2.741-6.593h25.079c3.663,0 6.79-2.646 7.396-6.258 0.91-5.421 1.372-10.886 1.372-16.242s-0.461-10.821-1.372-16.242c-0.606-3.612-3.733-6.258-7.396-6.258h-25.079c-0.796-2.24-1.71-4.44-2.742-6.593zm21.587,29.093c0,2.476-0.117,4.983-0.35,7.5h-24.041c-3.422,0-6.411,2.316-7.263,5.631-1.214,4.717-3.105,9.267-5.62,13.523-1.741,2.947-1.267,6.699 1.154,9.119l17.003,17.003c-3.209,3.852-6.755,7.398-10.607,10.607l-17.003-17.003c-2.42-2.42-6.171-2.895-9.118-1.154-4.258,2.516-8.809,4.407-13.524,5.621-3.314,0.853-5.631,3.841-5.631,7.263v24.041c-5.033,0.466-9.967,0.466-15,0v-24.041c0-3.422-2.316-6.411-5.631-7.263-4.717-1.214-9.267-3.105-13.523-5.62-2.948-1.741-6.699-1.267-9.119,1.154l-17.003,17.002c-3.852-3.209-7.397-6.754-10.606-10.606l17.002-17.003c2.42-2.42 2.895-6.171 1.154-9.118-2.516-4.258-4.407-8.809-5.621-13.524-0.853-3.314-3.841-5.631-7.263-5.631h-24.04c-0.233-2.517-0.35-5.024-0.35-7.5s0.117-4.983 0.35-7.5h24.04c3.422,0 6.41-2.316 7.263-5.63 1.214-4.716 3.105-9.266 5.621-13.524 1.741-2.947 1.266-6.698-1.154-9.118l-17.002-17.003c3.209-3.852 6.754-7.397 10.606-10.606l17.003,17.002c2.42,2.42 6.172,2.895 9.118,1.154 4.258-2.516 8.809-4.407 13.524-5.621 3.314-0.853 5.63-3.841 5.63-7.263v-24.042c5.033-0.466 9.967-0.466 15,0v24.041c0,3.422 2.316,6.411 5.631,7.263 4.715,1.213 9.266,3.104 13.524,5.621 2.946,1.74 6.698,1.266 9.118-1.154l17.003-17.003c3.852,3.209 7.397,6.755 10.606,10.607l-17.002,17.003c-2.42,2.42-2.895,6.172-1.154,9.119 2.515,4.257 4.406,8.807 5.62,13.523 0.853,3.314 3.841,5.631 7.263,5.631h24.041c0.234,2.516 0.351,5.023 0.351,7.499z"/>
    <path d="m285.292,92.132c-2.576-3.244-7.292-3.786-10.537-1.211-3.244,2.575-3.786,7.293-1.211,10.537 38.661,48.7 34.61,118.629-9.423,162.662-47.763,47.763-125.479,47.763-173.241,0s-47.763-125.479 0-173.241c44.033-44.034 113.962-48.083 162.662-9.423 3.243,2.575 7.961,2.033 10.537-1.211s2.033-7.962-1.211-10.537c-54.672-43.402-133.17-38.86-182.595,10.564-53.611,53.611-53.611,140.843 0,194.454 26.806,26.806 62.016,40.208 97.227,40.208s70.421-13.403 97.227-40.208c49.425-49.424 53.966-127.922 10.565-182.594z"/>
  </g>
</svg>
