<?xml version='1.0' encoding='iso-8859-1'?>
<svg version="1.1" xmlns="http://www.w3.org/2000/svg" viewBox="0 0 470 470" xmlns:xlink="http://www.w3.org/1999/xlink" enable-background="new 0 0 470 470">
  <g>
    <path d="m441.25,0h-412.5c-4.142,0-7.5,3.358-7.5,7.5v120c0,4.142 3.358,7.5 7.5,7.5h412.5c4.142,0 7.5-3.358 7.5-7.5v-120c0-4.142-3.358-7.5-7.5-7.5zm-405,15h277.5v105h-277.5v-105zm397.5,105h-105v-105h105v105z"/>
    <path d="m148.75,370h131.25c4.142,0 7.5-3.358 7.5-7.5s-3.358-7.5-7.5-7.5h-131.25c-4.142,0-7.5,3.358-7.5,7.5s3.358,7.5 7.5,7.5z"/>
    <path d="m411.25,315h-262.5c-4.142,0-7.5,3.358-7.5,7.5s3.358,7.5 7.5,7.5h262.5c4.142,0 7.5-3.358 7.5-7.5s-3.358-7.5-7.5-7.5z"/>
    <path d="m148.75,250h131.25c4.142,0 7.5-3.358 7.5-7.5s-3.358-7.5-7.5-7.5h-131.25c-4.142,0-7.5,3.358-7.5,7.5s3.358,7.5 7.5,7.5z"/>
    <path d="m148.75,210h262.5c4.142,0 7.5-3.358 7.5-7.5s-3.358-7.5-7.5-7.5h-262.5c-4.142,0-7.5,3.358-7.5,7.5s3.358,7.5 7.5,7.5z"/>
    <path d="m441.25,155h-412.5c-4.142,0-7.5,3.358-7.5,7.5v120c0,4.142 3.358,7.5 7.5,7.5h412.5c4.142,0 7.5-3.358 7.5-7.5v-120c0-4.142-3.358-7.5-7.5-7.5zm-7.5,120h-397.5v-105h397.5v105z"/>
    <path d="m352.723,82.3c5.787,5.787 13.48,8.974 21.664,8.974 5.621,0 11.01-1.504 15.71-4.321l15.85,15.85c1.464,1.464 3.384,2.197 5.303,2.197s3.839-0.732 5.303-2.197c2.929-2.929 2.929-7.678 0-10.606l-15.85-15.85c2.817-4.699 4.321-10.089 4.321-15.71 0-8.184-3.187-15.877-8.974-21.664-5.786-5.786-13.48-8.973-21.663-8.973-8.184,0-15.877,3.187-21.664,8.973-11.945,11.945-11.945,31.382 0,43.327zm10.607-32.72c2.954-2.953 6.88-4.58 11.057-4.58s8.104,1.626 11.057,4.58c2.954,2.954 4.58,6.88 4.58,11.057s-1.626,8.103-4.58,11.057-6.88,4.58-11.057,4.58-8.104-1.626-11.057-4.58c-6.097-6.097-6.097-16.017 0-22.114z"/>
    <path d="m118.75,305h-60c-4.142,0-7.5,3.358-7.5,7.5v60c0,4.142 3.358,7.5 7.5,7.5h60c4.142,0 7.5-3.358 7.5-7.5v-60c0-4.142-3.358-7.5-7.5-7.5zm-7.5,60h-45v-45h45v45z"/>
    <path d="M280,445H148.75c-4.142,0-7.5,3.358-7.5,7.5s3.358,7.5,7.5,7.5H280c4.142,0,7.5-3.358,7.5-7.5S284.142,445,280,445z"/>
    <path d="m411.25,405h-262.5c-4.142,0-7.5,3.358-7.5,7.5s3.358,7.5 7.5,7.5h262.5c4.142,0 7.5-3.358 7.5-7.5s-3.358-7.5-7.5-7.5z"/>
    <path d="m118.75,395h-60c-4.142,0-7.5,3.358-7.5,7.5v60c0,4.142 3.358,7.5 7.5,7.5h60c4.142,0 7.5-3.358 7.5-7.5v-60c0-4.142-3.358-7.5-7.5-7.5zm-7.5,60h-45v-45h45v45z"/>
    <path d="m58.75,260h60c4.142,0 7.5-3.358 7.5-7.5v-60c0-4.142-3.358-7.5-7.5-7.5h-60c-4.142,0-7.5,3.358-7.5,7.5v60c0,4.142 3.358,7.5 7.5,7.5zm7.5-60h45v45h-45v-45z"/>
  </g>
</svg>
