<?xml version='1.0' encoding='iso-8859-1'?>
<svg version="1.1" xmlns="http://www.w3.org/2000/svg" viewBox="0 0 470 470" xmlns:xlink="http://www.w3.org/1999/xlink" enable-background="new 0 0 470 470">
  <g>
    <path d="M447.851,0H22.149C9.936,0,0,9.936,0,22.148v66.921c0,12.213,9.936,22.148,22.149,22.148h425.702   c12.213,0,22.149-9.936,22.149-22.148V22.148C470,9.936,460.064,0,447.851,0z M455,89.069c0,3.941-3.207,7.148-7.149,7.148H22.149   c-3.942,0-7.149-3.207-7.149-7.148V22.148C15,18.207,18.207,15,22.149,15h425.702c3.942,0,7.149,3.207,7.149,7.148V89.069z"/>
    <path d="m285.064,174.327h-229.455c-4.142,0-7.5,3.357-7.5,7.5s3.358,7.5 7.5,7.5h229.455c4.142,0 7.5-3.357 7.5-7.5s-3.358-7.5-7.5-7.5z"/>
    <path d="m414.391,159.327c-12.407,0-22.5,10.094-22.5,22.5s10.093,22.5 22.5,22.5 22.5-10.094 22.5-22.5-10.093-22.5-22.5-22.5zm0,30c-4.136,0-7.5-3.364-7.5-7.5s3.364-7.5 7.5-7.5 7.5,3.364 7.5,7.5-3.364,7.5-7.5,7.5z"/>
    <path d="m348.173,159.327c-12.407,0-22.5,10.094-22.5,22.5s10.093,22.5 22.5,22.5 22.5-10.094 22.5-22.5-10.093-22.5-22.5-22.5zm0,30c-4.136,0-7.5-3.364-7.5-7.5s3.364-7.5 7.5-7.5 7.5,3.364 7.5,7.5-3.364,7.5-7.5,7.5z"/>
    <path d="m447.851,126.218h-425.702c-12.213,0-22.149,9.936-22.149,22.149v66.92c0,12.213 9.936,22.148 22.149,22.148h425.702c12.213,0 22.149-9.936 22.149-22.148v-66.92c0-12.213-9.936-22.149-22.149-22.149zm7.149,89.069c0,3.941-3.207,7.148-7.149,7.148h-425.702c-3.942,0-7.149-3.207-7.149-7.148v-66.92c0-3.942 3.207-7.149 7.149-7.149h425.702c3.942,0 7.149,3.207 7.149,7.149v66.92z"/>
    <path d="m285.064,300.545h-229.455c-4.142,0-7.5,3.357-7.5,7.5s3.358,7.5 7.5,7.5h229.455c4.142,0 7.5-3.357 7.5-7.5s-3.358-7.5-7.5-7.5z"/>
    <path d="m414.391,285.545c-12.407,0-22.5,10.094-22.5,22.5s10.093,22.5 22.5,22.5 22.5-10.094 22.5-22.5-10.093-22.5-22.5-22.5zm0,30c-4.136,0-7.5-3.364-7.5-7.5s3.364-7.5 7.5-7.5 7.5,3.364 7.5,7.5-3.364,7.5-7.5,7.5z"/>
    <path d="m348.173,285.545c-12.407,0-22.5,10.094-22.5,22.5s10.093,22.5 22.5,22.5 22.5-10.094 22.5-22.5-10.093-22.5-22.5-22.5zm0,30c-4.136,0-7.5-3.364-7.5-7.5s3.364-7.5 7.5-7.5 7.5,3.364 7.5,7.5-3.364,7.5-7.5,7.5z"/>
    <path d="m447.851,252.436h-425.702c-12.213,0-22.149,9.936-22.149,22.149v66.92c0,12.213 9.936,22.149 22.149,22.149h425.702c12.213,0 22.149-9.937 22.149-22.149v-66.92c0-12.213-9.936-22.149-22.149-22.149zm7.149,89.069c0,3.942-3.207,7.149-7.149,7.149h-425.702c-3.942,0-7.149-3.207-7.149-7.149v-66.92c0-3.942 3.207-7.149 7.149-7.149h425.702c3.942,0 7.149,3.207 7.149,7.149v66.92z"/>
    <path d="M462.5,430c4.142,0,7.5-3.357,7.5-7.5s-3.358-7.5-7.5-7.5H292.755c-0.556-3.593-3.654-6.346-7.402-6.346h-19.68v-22.5   c0-4.143-3.358-7.5-7.5-7.5s-7.5,3.357-7.5,7.5v30c0,4.143,3.358,7.5,7.5,7.5h19.68V455h-85.705v-31.346h36.025   c4.142,0,7.5-3.357,7.5-7.5s-3.358-7.5-7.5-7.5h-8.846v-22.5c0-4.143-3.358-7.5-7.5-7.5s-7.5,3.357-7.5,7.5v22.5h-19.679   c-3.749,0-6.846,2.753-7.402,6.346H7.5c-4.142,0-7.5,3.357-7.5,7.5s3.358,7.5,7.5,7.5h169.647v15H7.5c-4.142,0-7.5,3.357-7.5,7.5   s3.358,7.5,7.5,7.5h169.647v2.5c0,4.143,3.358,7.5,7.5,7.5h100.705c4.142,0,7.5-3.357,7.5-7.5V460H462.5c4.142,0,7.5-3.357,7.5-7.5   s-3.358-7.5-7.5-7.5H292.853v-15H462.5z"/>
    <path d="m285.064,48.109h-229.455c-4.142,0-7.5,3.357-7.5,7.5s3.358,7.5 7.5,7.5h229.455c4.142,0 7.5-3.357 7.5-7.5s-3.358-7.5-7.5-7.5z"/>
    <path d="m414.391,33.109c-12.407,0-22.5,10.094-22.5,22.5s10.093,22.5 22.5,22.5 22.5-10.094 22.5-22.5-10.093-22.5-22.5-22.5zm0,30c-4.136,0-7.5-3.364-7.5-7.5s3.364-7.5 7.5-7.5 7.5,3.364 7.5,7.5-3.364,7.5-7.5,7.5z"/>
    <path d="m348.173,33.109c-12.407,0-22.5,10.094-22.5,22.5s10.093,22.5 22.5,22.5 22.5-10.094 22.5-22.5-10.093-22.5-22.5-22.5zm0,30c-4.136,0-7.5-3.364-7.5-7.5s3.364-7.5 7.5-7.5 7.5,3.364 7.5,7.5-3.364,7.5-7.5,7.5z"/>
  </g>
</svg>
