<?xml version='1.0' encoding='iso-8859-1'?>
<svg version="1.1" xmlns="http://www.w3.org/2000/svg" viewBox="0 0 470 470" xmlns:xlink="http://www.w3.org/1999/xlink" enable-background="new 0 0 470 470">
  <g>
    <path d="m378.194,217.077c-4.142,0-7.5,3.358-7.5,7.5v134.427h-271.388v-134.427c1.42109e-14-4.142-3.358-7.5-7.5-7.5s-7.5,3.358-7.5,7.5v224.142c0,11.734 9.547,21.281 21.281,21.281h258.826c11.734,0 21.281-9.547 21.281-21.281v-224.142c0-4.142-3.358-7.5-7.5-7.5zm-13.781,237.923h-258.826c-3.463,0-6.281-2.818-6.281-6.281v-74.715h271.389v74.715c-0.001,3.463-2.819,6.281-6.282,6.281z"/>
    <path d="m258.999,407.002h-47.998c-4.142,0-7.5,3.358-7.5,7.5s3.358,7.5 7.5,7.5h47.998c4.142,0 7.5-3.358 7.5-7.5s-3.358-7.5-7.5-7.5z"/>
    <path d="m364.413,0h-258.826c-11.734,0-21.281,9.547-21.281,21.281v141.989c0,30.455 24.777,55.231 55.231,55.231 20.339,0 38.146-11.052 47.731-27.465 9.585,16.413 27.393,27.465 47.731,27.465s38.146-11.052 47.731-27.465c9.585,16.413 27.393,27.465 47.731,27.465 30.455,0 55.231-24.777 55.231-55.231v-141.989c0.002-11.734-9.545-21.281-21.279-21.281zm-81.682,77.998c-4.142,0-7.5,3.358-7.5,7.5v60.271h-80.463v-60.271c0-4.142-3.358-7.5-7.5-7.5s-7.5,3.358-7.5,7.5v60.271h-80.462v-82.771h271.389v82.771h-80.463v-60.271c-0.001-4.142-3.358-7.5-7.501-7.5zm-177.144-62.998h258.826c3.463,0 6.281,2.818 6.281,6.281v26.717h-271.388v-26.717c1.42109e-14-3.463 2.818-6.281 6.281-6.281zm33.95,188.501c-22.184,0-40.231-18.048-40.231-40.231v-2.5h80.463v2.5c0,22.183-18.048,40.231-40.232,40.231zm95.463,0c-22.184,0-40.231-18.048-40.231-40.231v-2.5h80.463v2.5c-0.001,22.183-18.048,40.231-40.232,40.231zm95.463,0c-22.184,0-40.231-18.048-40.231-40.231v-2.5h80.463v2.5c-0.001,22.183-18.049,40.231-40.232,40.231z"/>
  </g>
</svg>
