<?xml version='1.0' encoding='iso-8859-1'?>
<svg version="1.1" xmlns="http://www.w3.org/2000/svg" viewBox="0 0 469.635 469.635" xmlns:xlink="http://www.w3.org/1999/xlink" enable-background="new 0 0 469.635 469.635">
  <g>
    <path d="m84.716,207.572l-24.022-.072c-0.609,0-1.104-0.496-1.104-1.106v-119.638c0-2.841-1.605-5.438-4.146-6.708l-27.235-13.618 27.235-13.617c2.54-1.27 4.146-3.867 4.146-6.708v-30c0-0.609 0.495-1.104 1.104-1.104h331.749c0.609,0 1.104,0.496 1.104,1.104v168.967c0,4.142 3.357,7.5 7.5,7.5s7.5-3.358 7.5-7.5v-168.968c0-8.88-7.225-16.104-16.104-16.104h-331.749c-8.88,0-16.104,7.225-16.104,16.104v25.365l-36.506,18.253c-2.54,1.27-4.146,3.867-4.146,6.708s1.604,5.438 4.146,6.708l36.506,18.253v115.003c0,8.881 7.225,16.106 16.082,16.106l23.999,.072c4.154,0 7.51-3.343 7.522-7.478 0.013-4.142-3.336-7.51-7.477-7.522z"/>
    <path d="m465.696,245.955c0-21.165-17.219-38.383-38.383-38.383l-93.894,.001c16.563-30.455 25.578-68.276 25.578-108.058 0-21.165-17.219-38.383-38.383-38.383s-38.383,17.218-38.383,38.383c0,59.583-48.474,108.057-108.057,108.057h-59.482c-4.143,0-7.5,3.358-7.5,7.5v247.063c0,4.142 3.357,7.5 7.5,7.5h59.482c4.143,0 7.5-3.358 7.5-7.5v-239.798c64.374-3.89 115.557-57.487 115.557-122.822 0-12.894 10.489-23.383 23.383-23.383s23.383,10.489 23.383,23.383c0,42.128-10.673,81.714-30.052,111.465-1.502,2.306-1.621,5.249-0.31,7.668s3.842,3.926 6.594,3.926l107.083-.002c12.894,0 23.383,10.49 23.383,23.383s-10.489,23.383-23.383,23.383h-37.948c-4.143,0-7.5,3.358-7.5,7.5s3.357,7.5 7.5,7.5h25.299c12.894,0 23.383,10.489 23.383,23.383s-10.489,23.383-23.383,23.383h-25.299c-4.143,0-7.5,3.358-7.5,7.5s3.357,7.5 7.5,7.5h12.649c12.894,0 23.383,10.489 23.383,23.383s-10.489,23.383-23.383,23.383h-12.649c-4.143,0-7.5,3.358-7.5,7.5s3.357,7.5 7.5,7.5c12.894,0 23.383,10.489 23.383,23.383s-10.489,23.383-23.383,23.383h-185.188c-4.143,0-7.5,3.358-7.5,7.5s3.357,7.5 7.5,7.5h185.189c21.164,0 38.383-17.218 38.383-38.383 0-10.258-4.045-19.589-10.624-26.482 13.674-5.878 23.273-19.481 23.273-35.284 0-10.258-4.045-19.589-10.624-26.482 13.674-5.878 23.273-19.481 23.273-35.283 0-10.258-4.045-19.589-10.624-26.482 13.675-5.88 23.274-19.483 23.274-35.285zm-299.02,208.68h-44.482v-232.063h44.482v232.063z"/>
    <path d="m366.865,432.135v-187.062c0-4.142-3.357-7.5-7.5-7.5s-7.5,3.358-7.5,7.5v187.062c0,4.142 3.357,7.5 7.5,7.5s7.5-3.358 7.5-7.5z"/>
  </g>
</svg>
