<?xml version='1.0' encoding='iso-8859-1'?>
<svg version="1.1" xmlns="http://www.w3.org/2000/svg" viewBox="0 0 470 470" xmlns:xlink="http://www.w3.org/1999/xlink" enable-background="new 0 0 470 470">
  <g>
    <path d="M384.609,206.394V16.105c0-8.88-7.225-16.105-16.104-16.105H56.756c-8.88,0-16.105,7.225-16.105,16.105V41.47L4.146,59.722   C1.605,60.992,0,63.589,0,66.43s1.605,5.438,4.146,6.708l36.505,18.253v115.002c0,8.881,7.225,16.106,16.105,16.106h311.749   C377.385,222.5,384.609,215.275,384.609,206.394z M24.271,66.43l27.235-13.617c2.541-1.271,4.146-3.868,4.146-6.708v-30   c0-0.609,0.496-1.105,1.105-1.105h311.749c0.609,0,1.104,0.496,1.104,1.105V147.5H55.651V86.756c0-2.841-1.605-5.438-4.146-6.708   L24.271,66.43z M55.651,206.394V162.5h313.958v43.894c0,0.61-0.495,1.106-1.104,1.106H56.756   C56.147,207.5,55.651,207.004,55.651,206.394z"/>
    <path d="m347.109,177.5h-268.958c-4.142,0-7.5,3.358-7.5,7.5s3.358,7.5 7.5,7.5h268.958c4.143,0 7.5-3.358 7.5-7.5s-3.357-7.5-7.5-7.5z"/>
    <path d="m175.832,121.4c1.197,0.731 2.552,1.1 3.91,1.1 1.172,0 2.346-0.274 3.423-0.827l65.778-33.75c2.503-1.284 4.076-3.86 4.076-6.673s-1.573-5.389-4.076-6.673l-65.778-33.75c-2.326-1.194-5.104-1.089-7.333,0.272-2.23,1.362-3.59,3.787-3.59,6.4v67.501c2.84217e-14,2.613 1.36,5.038 3.59,6.4zm11.41-61.622l41.848,21.472-41.849,21.472v-42.944z"/>
    <path d="m465.854,307.222l-36.506-18.252v-25.365c0-8.88-7.225-16.105-16.104-16.105h-311.748c-8.88,0-16.105,7.225-16.105,16.105v190.289c0,8.881 7.225,16.106 16.105,16.106h311.749c8.88,0 16.104-7.225 16.104-16.106v-115.002l36.506-18.253c2.54-1.27 4.146-3.867 4.146-6.708s-1.606-5.439-4.147-6.709zm-52.61,147.778h-311.748c-0.609,0-1.105-0.496-1.105-1.106v-43.894h313.958v43.894c-5.68434e-14,0.61-0.495,1.106-1.105,1.106zm5.25-127.452c-2.54,1.27-4.146,3.867-4.146,6.708v60.744h-313.957v-131.395c-1.42109e-14-0.609 0.496-1.105 1.105-1.105h311.749c0.609,0 1.104,0.496 1.104,1.105v30c0,2.841 1.605,5.438 4.146,6.708l27.235,13.617-27.236,13.618z"/>
    <path d="m391.849,425h-268.958c-4.142,0-7.5,3.358-7.5,7.5s3.358,7.5 7.5,7.5h268.958c4.143,0 7.5-3.358 7.5-7.5s-3.358-7.5-7.5-7.5z"/>
    <path d="m293.682,322.077l-65.777-33.75c-2.326-1.194-5.104-1.089-7.333,0.272-2.23,1.362-3.59,3.787-3.59,6.4v67.5c0,2.613 1.36,5.038 3.59,6.4 1.197,0.731 2.552,1.1 3.91,1.1 1.172,0 2.346-0.274 3.423-0.827l65.777-33.75c2.503-1.284 4.076-3.86 4.076-6.673s-1.573-5.388-4.076-6.672zm-61.701,28.145v-42.944l41.848,21.472-41.848,21.472z"/>
  </g>
</svg>
