<?xml version="1.0" encoding="iso-8859-1"?>
<!-- Generator: Adobe Illustrator 19.0.0, SVG Export Plug-In . SVG Version: 6.00 Build 0)  -->
<svg version="1.1" id="Layer_1" xmlns="http://www.w3.org/2000/svg" xmlns:xlink="http://www.w3.org/1999/xlink" x="0px" y="0px"
     viewBox="0 0 512 512" style="enable-background:new 0 0 512 512;" xml:space="preserve">
<g>
	<g>
		<g>
			<path d="M256,47.966c-4.465,0-8.084,3.619-8.084,8.084v1.078c0,4.466,3.62,8.084,8.084,8.084c4.466,0,8.084-3.618,8.084-8.084
				v-1.078C264.084,51.585,260.466,47.966,256,47.966z"/>
            <path d="M223.663,47.966c-4.465,0-8.084,3.619-8.084,8.084v1.078c0,4.466,3.62,8.084,8.084,8.084
				c4.465,0,8.084-3.618,8.084-8.084v-1.078C231.747,51.585,228.128,47.966,223.663,47.966z"/>
            <path d="M347.621,150.366c-4.466,0-8.084,3.618-8.084,8.084v1.078c0,4.466,3.618,8.084,8.084,8.084
				c4.466,0,8.084-3.618,8.084-8.084v-1.078C355.705,153.985,352.087,150.366,347.621,150.366z"/>
            <path d="M379.958,150.366c-4.466,0-8.084,3.618-8.084,8.084v1.078c0,4.466,3.619,8.084,8.084,8.084
				c4.466,0,8.084-3.618,8.084-8.084v-1.078C388.042,153.985,384.424,150.366,379.958,150.366z"/>
            <path d="M471.579,252.766c-4.466,0-8.084,3.619-8.084,8.084v1.078c0,4.466,3.618,8.084,8.084,8.084
				c4.466,0,8.084-3.618,8.084-8.084v-1.078C479.663,256.385,476.045,252.766,471.579,252.766z"/>
            <path d="M288.337,47.966c-4.466,0-8.084,3.619-8.084,8.084v1.078c0,4.466,3.618,8.084,8.084,8.084
				c4.466,0,8.084-3.618,8.084-8.084v-1.078C296.421,51.585,292.803,47.966,288.337,47.966z"/>
            <path d="M439.242,252.766c-4.466,0-8.084,3.619-8.084,8.084v1.078c0,4.466,3.618,8.084,8.084,8.084
				c4.466,0,8.084-3.618,8.084-8.084v-1.078C447.326,256.385,443.708,252.766,439.242,252.766z"/>
            <path d="M482.358,226.358h-61.979v-40.421V153.6c0-16.344-13.298-29.642-29.642-29.642h-61.979V83.537V51.2
				c0-16.344-13.298-29.642-29.642-29.642h-153.6v-2.695C145.516,8.463,137.053,0,126.653,0H61.979
				C51.578,0,43.116,8.463,43.116,18.863v2.695H29.642C13.297,21.558,0,34.856,0,51.2v32.337v194.021
				C0,293.902,13.297,307.2,29.642,307.2h61.979v72.758c0,16.344,13.297,29.642,29.642,29.642h61.979v72.758
				c0,16.344,13.297,29.642,29.642,29.642h269.474C498.702,512,512,498.702,512,482.358V288.337V256
				C512,239.656,498.702,226.358,482.358,226.358z M420.251,382.653h29.77c1.486,0,2.695,1.208,2.695,2.695v64.674
				c0,1.486-1.208,2.695-2.695,2.695h-204.8c-1.485,0-2.695-1.208-2.695-2.695v-38.804c0-0.554-0.056-1.094-0.163-1.617h148.373
				C406.172,409.6,418.884,397.738,420.251,382.653z M328.758,140.126h61.979c7.43,0,13.474,6.044,13.474,13.474v24.253h-75.453
				V140.126z M328.758,277.558v-2.695H358.4c1.486,0,2.695,1.208,2.695,2.695v64.674c0,1.486-1.208,2.695-2.695,2.695H153.6
				c-1.485,0-2.695-1.208-2.695-2.695V307.2h148.211C315.46,307.2,328.758,293.902,328.758,277.558z M145.516,37.726h153.6
				c7.43,0,13.474,6.044,13.474,13.474v24.253H145.516V37.726z M59.284,18.863c0-1.486,1.209-2.695,2.695-2.695h64.674
				c1.485,0,2.695,1.208,2.695,2.695v56.589H59.284V18.863z M16.168,51.2c0-7.43,6.044-13.474,13.474-13.474h13.474v37.726H16.168
				V51.2z M29.642,291.032c-7.43,0-13.474-6.044-13.474-13.474V91.621h296.421v185.937c0,7.43-6.044,13.474-13.474,13.474H29.642z
				 M121.263,393.432c-7.43,0-13.474-6.044-13.474-13.474V307.2h26.947v35.032c0,10.401,8.463,18.863,18.863,18.863h204.8
				c10.401,0,18.863-8.463,18.863-18.863v-64.674c0-10.401-8.463-18.863-18.863-18.863h-29.642v-27.109
				c0.523,0.106,1.063,0.162,1.617,0.162h38.804c4.466,0,8.084-3.618,8.084-8.084c0-4.466-3.619-8.084-8.084-8.084h-38.804
				c-0.554,0-1.094,0.056-1.617,0.162v-21.72h75.453v185.937c0,7.43-6.044,13.474-13.474,13.474H121.263z M495.832,482.358
				c0,7.43-6.044,13.474-13.474,13.474H212.884c-7.43,0-13.474-6.044-13.474-13.474V409.6h27.11
				c-0.107,0.523-0.163,1.063-0.163,1.617v38.804c0,10.401,8.463,18.863,18.863,18.863h204.8c10.401,0,18.863-8.463,18.863-18.863
				v-64.674c0-10.401-8.463-18.863-18.863-18.863h-29.642v-26.947H460.8c4.466,0,8.084-3.619,8.084-8.084s-3.618-8.084-8.084-8.084
				h-40.421v-26.947h75.453V482.358z M495.832,280.253h-75.453v-37.726h61.979c7.43,0,13.474,6.044,13.474,13.474V280.253z"/>
            <path d="M277.558,118.568H148.21c-4.465,0-8.084,3.619-8.084,8.084s3.62,8.084,8.084,8.084h129.347
				c4.466,0,8.084-3.619,8.084-8.084S282.024,118.568,277.558,118.568z"/>
            <path d="M266.779,161.684h-204.8c-10.401,0-18.863,8.463-18.863,18.863v64.674c0,10.401,8.463,18.863,18.863,18.863h204.8
				c10.401,0,18.863-8.463,18.863-18.863v-64.674C285.642,170.147,277.18,161.684,266.779,161.684z M269.474,245.221
				c0,1.486-1.208,2.695-2.695,2.695h-204.8c-1.485,0-2.695-1.208-2.695-2.695v-64.674c0-1.486,1.209-2.695,2.695-2.695h204.8
				c1.486,0,2.695,1.208,2.695,2.695V245.221z"/>
            <path d="M51.2,134.737h53.895c4.465,0,8.084-3.619,8.084-8.084s-3.62-8.084-8.084-8.084H51.2c-4.465,0-8.084,3.619-8.084,8.084
				S46.735,134.737,51.2,134.737z"/>
		</g>
	</g>
</g>
    <g>
</g>
    <g>
</g>
    <g>
</g>
    <g>
</g>
    <g>
</g>
    <g>
</g>
    <g>
</g>
    <g>
</g>
    <g>
</g>
    <g>
</g>
    <g>
</g>
    <g>
</g>
    <g>
</g>
    <g>
</g>
    <g>
</g>
</svg>
