<?xml version='1.0' encoding='iso-8859-1'?>
<svg version="1.1" xmlns="http://www.w3.org/2000/svg" viewBox="0 0 470 470" xmlns:xlink="http://www.w3.org/1999/xlink" enable-background="new 0 0 470 470">
  <g>
    <path d="M467.79,182.29l-77.256-76.875c-1.405-1.398-3.307-2.184-5.29-2.184H37.5c-4.142,0-7.5,3.358-7.5,7.5v278.536   c0,4.142,3.358,7.5,7.5,7.5h347.744c1.983,0,3.885-0.785,5.29-2.184l77.256-76.875c1.415-1.408,2.21-3.321,2.21-5.316V187.606   C470,185.611,469.205,183.698,467.79,182.29z M455,309.276l-72.852,72.492H45V118.232h337.148L455,190.724V309.276z"/>
    <path d="m362.744,80.732c0-4.142-3.358-7.5-7.5-7.5h-347.744c-4.142,0-7.5,3.358-7.5,7.5v278.536c0,4.142 3.358,7.5 7.5,7.5s7.5-3.358 7.5-7.5v-271.036h340.244c4.142,2.84217e-14 7.5-3.358 7.5-7.5z"/>
    <path d="m254.906,175.121c4.143-0.001 7.5-3.359 7.499-7.501s-3.358-7.499-7.5-7.499c-0.001,0-71.664,0.016-71.664,0.016-4.142,0.001-7.499,3.358-7.499,7.5v164.742c0,4.142 3.358,7.5 7.5,7.5h71.663c4.142,0 7.5-3.358 7.5-7.5s-3.358-7.5-7.5-7.5h-64.163v-67.372h42.667c4.142,0 7.5-3.358 7.5-7.5s-3.358-7.5-7.5-7.5h-42.667v-67.372l64.164-.014z"/>
    <path d="m114.982,175.121c16.457,0 29.845,13.388 29.845,29.845 0,4.142 3.358,7.5 7.5,7.5s7.5-3.358 7.5-7.5c0-24.728-20.117-44.845-44.845-44.845s-44.845,20.117-44.845,44.845c0,32.311 26.035,44.525 41.59,51.823 18.034,8.462 32.961,17.18 32.961,38.245 0,16.457-13.388,29.845-29.845,29.845s-29.843-13.389-29.843-29.845c0-4.142-3.358-7.5-7.5-7.5s-7.5,3.358-7.5,7.5c0,24.728 20.117,44.845 44.845,44.845s44.845-20.117 44.845-44.845c0-32.31-26.035-44.525-41.59-51.824-18.034-8.461-32.961-17.179-32.961-38.244-0.001-16.457 13.387-29.845 29.843-29.845z"/>
    <path d="m311.967,160.121c-24.728,0-44.845,20.117-44.845,44.833l-.138,90.08c0,24.728 20.117,44.845 44.845,44.845s44.845-20.117 44.845-44.845v-90.068c-0.001-24.728-20.056-44.845-44.707-44.845zm29.706,134.913c0,16.457-13.388,29.845-29.845,29.845s-29.845-13.388-29.845-29.833l.138-90.08c0-16.457 13.388-29.845 29.845-29.845 16.38,0 29.707,13.388 29.707,29.845v90.068z"/>
    <path d="m407.5,272.5c12.407,0 22.5-10.093 22.5-22.5s-10.093-22.5-22.5-22.5-22.5,10.097-22.5,22.507c0,12.403 10.093,22.493 22.5,22.493zm0-30c4.136,0 7.5,3.364 7.5,7.5s-3.364,7.5-7.5,7.5-7.5-3.361-7.5-7.493c0-4.139 3.364-7.507 7.5-7.507z"/>
  </g>
</svg>
