<?xml version='1.0' encoding='iso-8859-1'?>
<svg version="1.1" xmlns="http://www.w3.org/2000/svg" viewBox="0 0 470 470" xmlns:xlink="http://www.w3.org/1999/xlink" enable-background="new 0 0 470 470">
  <path d="m469.19,46.536c-1.467-2.894-4.636-4.521-7.832-4.021l-40.045,6.173 6.173-40.045c0.494-3.205-1.128-6.365-4.021-7.832-2.894-1.467-6.402-0.908-8.695,1.386l-46.484,46.484c-1.127,1.128-1.866,2.585-2.108,4.161l-7.358,47.733-26.609,26.609c-36.654-34.03-84.102-52.694-134.454-52.694-52.864,0-102.536,20.559-139.866,57.889-37.332,37.331-57.891,87.003-57.891,139.867s20.559,102.535 57.889,139.866c37.331,37.33 87.003,57.888 139.866,57.888s102.536-20.559 139.866-57.889c37.33-37.331 57.889-87.003 57.889-139.866 0-42.051-12.996-82.189-37.583-116.076-2.433-3.354-7.125-4.1-10.475-1.666-3.353,2.433-4.099,7.122-1.666,10.475 22.717,31.31 34.724,68.402 34.724,107.268 0,100.771-81.984,182.754-182.755,182.754-100.771,0-182.755-81.983-182.755-182.754s81.984-182.755 182.755-182.755c46.345,1.42109e-14 90.026,17.105 123.84,48.308l-34.284,34.284c-24.653-22.076-56.23-34.173-89.557-34.173-74.074,0-134.337,60.264-134.337,134.337s60.263,134.337 134.337,134.337 134.336-60.264 134.336-134.337c0-24.723-6.76-48.882-19.548-69.866-2.156-3.537-6.771-4.658-10.308-2.501-3.537,2.155-4.656,6.771-2.501,10.308 11.354,18.632 17.356,40.092 17.356,62.06 0,65.803-53.534,119.337-119.336,119.337-65.803,0-119.337-53.534-119.337-119.337s53.534-119.337 119.337-119.337c29.327,0 57.131,10.538 78.937,29.793l-34.365,34.365c-12.575-10.193-28.141-15.74-44.572-15.74-39.104,0-70.918,31.814-70.918,70.919s31.814,70.918 70.918,70.918c39.105,0 70.918-31.813 70.918-70.918 0-6.967-1.008-13.853-2.995-20.468-1.192-3.967-5.374-6.219-9.341-5.024-3.967,1.191-6.217,5.373-5.024,9.341 1.566,5.214 2.36,10.647 2.36,16.151 0,30.833-25.085,55.918-55.918,55.918s-55.918-25.085-55.918-55.918c0-30.834 25.085-55.919 55.918-55.919 12.416,0 24.2,4.021 33.886,11.426l-39.19,39.19c-2.929,2.93-2.929,7.678 0,10.607 1.464,1.464 3.384,2.196 5.303,2.196 1.919,0 3.839-0.732 5.303-2.196l134.539-134.539c0.046-0.046 31.828-31.828 31.828-31.828l47.733-7.359c1.576-0.242 3.033-0.981 4.161-2.108l46.484-46.484c2.297-2.297 2.856-5.805 1.39-8.698zm-88.563,11.017l28.542-28.541-3.866,25.079-28.542,28.542 3.866-25.08zm31.82,31.821l-25.078,3.866 28.542-28.542 25.077-3.866-28.541,28.542z"/>
</svg>
