<svg xmlns="http://www.w3.org/2000/svg" viewBox="0 0 50 50">
    <path style="line-height:normal;text-indent:0;text-align:start;text-decoration-line:none;text-decoration-style:solid;text-decoration-color:#000;text-transform:none;block-progression:tb;isolation:auto;mix-blend-mode:normal"
          d="M 5.0019531 4 C 3.3558914 3.9985104 2 5.3544268 2 7 L 2.0058594 44 C 2.0058594 45.093063 2.9127966 46 4.0058594 46 L 27 46 C 28.093063 46 29 45.093063 29 44 L 29 43 L 29 40 L 29 36.087891 L 27 38.322266 L 27 40 L 27 43 L 27 44 L 4.0058594 44 L 4 7 C 4 6.4355732 4.4360617 5.9994896 5 6 L 12 6.0039062 C 12.564427 6.0039062 13 6.4408292 13 7.0058594 L 13 12.003906 L 27 12 L 27 16 L 27 16.853516 L 29 19.089844 L 29 15 L 29 12 C 29 10.906937 28.093063 10 27 10 L 15 10.003906 L 15 7.0058594 C 15 5.3608955 13.645573 4.0039063 12 4.0039062 L 5.0019531 4 z M 30.980469 4 L 23.982422 4.0429688 C 22.336168 4.0519074 20.989577 5.4151788 21 7.0605469 L 21.005859 8.0058594 L 23.005859 7.9941406 L 23 7.0488281 C 22.9964 6.4841962 23.430394 6.0440767 23.994141 6.0410156 L 30.992188 6 C 31.55791 5.9969282 31.996422 6.4293002 32 6.9941406 L 32 12 L 45.996094 12 L 45.998047 12 L 45.986328 43.996094 L 45.986328 44 L 31 44 L 31 46 L 45.996094 46 L 46 46 C 47.091541 45.9921 47.994237 45.079677 47.986328 43.986328 L 47.998047 11.990234 L 47.998047 11.986328 C 47.990136 10.894781 47.077724 9.9920915 45.984375 10 L 34 10 L 34 6.984375 L 34 6.9824219 C 33.989578 5.3372623 32.6267 3.9910718 30.982422 4 L 30.980469 4 z M 22.746094 21.333984 L 21.253906 22.666016 L 25.658203 27.587891 L 21.253906 32.509766 L 22.746094 33.84375 L 28.341797 27.587891 L 22.746094 21.333984 z M 28.746094 21.333984 L 27.253906 22.666016 L 31.658203 27.587891 L 27.253906 32.509766 L 28.746094 33.84375 L 34.341797 27.587891 L 28.746094 21.333984 z"
          font-weight="400" font-family="sans-serif" white-space="normal" overflow="visible"></path>
</svg>