<?xml version="1.0" encoding="iso-8859-1"?>
<!-- Generator: Adobe Illustrator 16.0.0, SVG Export Plug-In . SVG Version: 6.00 Build 0)  -->
<!DOCTYPE svg PUBLIC "-//W3C//DTD SVG 1.1//EN" "http://www.w3.org/Graphics/SVG/1.1/DTD/svg11.dtd">
<svg version="1.1" id="Capa_1" xmlns="http://www.w3.org/2000/svg" xmlns:xlink="http://www.w3.org/1999/xlink" x="0px" y="0px"
	 width="31.5px" height="31.5px" viewBox="0 0 31.5 31.5" style="enable-background:new 0 0 31.5 31.5;" xml:space="preserve">
<g>
	<path d="M30,0H1.5C0.671,0,0,0.671,0,1.5V30c0,0.828,0.671,1.5,1.5,1.5H30c0.829,0,1.5-0.672,1.5-1.5V1.5C31.5,0.671,30.829,0,30,0
		z M28.5,28.5H3V3h25.5V28.5z M6.741,12.517c-0.296-0.462-0.316-1.048-0.053-1.529s0.768-0.78,1.316-0.78h15.494
		c0.549,0,1.053,0.299,1.316,0.78c0.263,0.481,0.242,1.067-0.053,1.529l-7.748,12.084c-0.275,0.43-0.75,0.689-1.264,0.689
		c-0.512,0-0.987-0.262-1.263-0.689L6.741,12.517z"/>
</g>
<g>
</g>
<g>
</g>
<g>
</g>
<g>
</g>
<g>
</g>
<g>
</g>
<g>
</g>
<g>
</g>
<g>
</g>
<g>
</g>
<g>
</g>
<g>
</g>
<g>
</g>
<g>
</g>
<g>
</g>
</svg>
