<?xml version='1.0' encoding='iso-8859-1'?>
<svg version="1.1" xmlns="http://www.w3.org/2000/svg" viewBox="0 0 470 470" xmlns:xlink="http://www.w3.org/1999/xlink" enable-background="new 0 0 470 470">
  <g>
    <path d="m100,302.5c0,4.142 3.357,7.5 7.5,7.5h255c4.143,0 7.5-3.358 7.5-7.5s-3.357-7.5-7.5-7.5h-255c-4.143,0-7.5,3.358-7.5,7.5z"/>
    <path d="m70,332.5c0,4.142 3.357,7.5 7.5,7.5h315c4.143,0 7.5-3.358 7.5-7.5s-3.357-7.5-7.5-7.5h-315c-4.143,0-7.5,3.358-7.5,7.5z"/>
    <path d="m362.5,355h-255c-4.143,0-7.5,3.358-7.5,7.5s3.357,7.5 7.5,7.5h255c4.143,0 7.5-3.358 7.5-7.5s-3.357-7.5-7.5-7.5z"/>
    <path d="m302.5,385h-135c-4.143,0-7.5,3.358-7.5,7.5v30c0,4.142 3.357,7.5 7.5,7.5h135c4.143,0 7.5-3.358 7.5-7.5v-30c0-4.142-3.357-7.5-7.5-7.5zm-7.5,30h-120v-15h120v15z"/>
    <path d="m432.5,196.096h-107.52c-4.143,0-7.5,3.358-7.5,7.5 0,17.92-14.579,32.5-32.5,32.5h-99.96c-17.921,0-32.5-14.58-32.5-32.5 0-4.142-3.357-7.5-7.5-7.5h-107.52c-4.143,0-7.5,3.358-7.5,7.5v231.264c0,19.376 15.764,35.14 35.141,35.14h339.719c19.376,0 35.14-15.764 35.14-35.14v-231.264c0-4.142-3.357-7.5-7.5-7.5zm-7.5,238.764c0,11.105-9.035,20.14-20.141,20.14h-339.718c-11.106,0-20.141-9.035-20.141-20.14v-223.764h93.111c3.605,22.641 23.268,40 46.908,40h99.961c23.641,0 43.303-17.359 46.908-40h93.112v223.764z"/>
    <path d="M87.5,181.096c4.143,0,7.5-3.358,7.5-7.5v-12.5h280v12.5c0,4.142,3.357,7.5,7.5,7.5s7.5-3.358,7.5-7.5V7.5   c0-4.142-3.357-7.5-7.5-7.5h-295C83.357,0,80,3.358,80,7.5v166.096C80,177.738,83.357,181.096,87.5,181.096z M375,15v131.096H95V15   H375z"/>
    <path d="m57.5,181.096c4.143,0 7.5-3.358 7.5-7.5v-40c0-4.142-3.357-7.5-7.5-7.5s-7.5,3.358-7.5,7.5v40c0,4.142 3.357,7.5 7.5,7.5z"/>
    <path d="m412.5,181.096c4.143,0 7.5-3.358 7.5-7.5v-40c0-4.142-3.357-7.5-7.5-7.5s-7.5,3.358-7.5,7.5v40c0,4.142 3.357,7.5 7.5,7.5z"/>
    <path d="m203.013,65c4.143,0 7.5-3.358 7.5-7.5v-2.5h16.987v51.096h-2.5c-4.143,0-7.5,3.358-7.5,7.5s3.357,7.5 7.5,7.5h20c4.143,0 7.5-3.358 7.5-7.5s-3.357-7.5-7.5-7.5h-2.5v-51.096h17.394v2.5c0,4.142 3.357,7.5 7.5,7.5s7.5-3.358 7.5-7.5v-10c0-4.142-3.357-7.5-7.5-7.5h-64.381c-4.143,0-7.5,3.358-7.5,7.5v10c0,4.142 3.357,7.5 7.5,7.5z"/>
  </g>
</svg>
