<?xml version='1.0' encoding='iso-8859-1'?>
<svg version="1.1" xmlns="http://www.w3.org/2000/svg" viewBox="0 0 470 470" xmlns:xlink="http://www.w3.org/1999/xlink" enable-background="new 0 0 470 470">
  <g>
    <path d="m467.804,435.984l-58.542-58.543c-1.407-1.406-3.314-2.196-5.304-2.196s-3.896,0.79-5.304,2.196l-5.303,5.303-10.844-10.844c14.635-17.059 23.491-39.214 23.491-63.401 0-53.762-43.738-97.5-97.5-97.5s-97.5,43.738-97.5,97.5 43.738,97.5 97.5,97.5c24.187,0 46.342-8.856 63.401-23.491l10.844,10.844-5.303,5.303c-1.406,1.407-2.196,3.314-2.196,5.304s0.79,3.896 2.196,5.304l58.543,58.542c1.465,1.464 3.385,2.196 5.304,2.196s3.839-0.732 5.304-2.196l21.213-21.213c2.928-2.931 2.928-7.679 0-10.608zm-241.806-127.486c0-45.49 37.01-82.5 82.5-82.5s82.5,37.01 82.5,82.5-37.01,82.5-82.5,82.5-82.5-37.01-82.5-82.5zm215.289,143.396l-47.937-47.936 10.607-10.607 47.936,47.937-10.606,10.606z"/>
    <path d="m229.219,390.998h-214.219v-45h177.295c4.142,0 7.5-3.357 7.5-7.5s-3.358-7.5-7.5-7.5h-177.295v-315.998h196.411v82.087c0,4.143 3.358,7.5 7.5,7.5h82.087v83.911c0,4.143 3.357,7.5 7.5,7.5s7.5-3.357 7.5-7.5v-91.411c0-0.251-0.013-0.501-0.038-0.749-0.018-0.184-0.05-0.364-0.081-0.544-0.011-0.061-0.016-0.123-0.028-0.183-0.043-0.218-0.099-0.431-0.161-0.642-0.006-0.022-0.01-0.045-0.017-0.067-0.066-0.216-0.143-0.426-0.227-0.633-0.007-0.018-0.013-0.038-0.02-0.056-0.081-0.195-0.173-0.385-0.27-0.572-0.016-0.031-0.028-0.063-0.045-0.093-0.091-0.169-0.192-0.332-0.295-0.493-0.029-0.046-0.054-0.094-0.084-0.139-0.099-0.148-0.208-0.288-0.317-0.428-0.042-0.053-0.078-0.11-0.121-0.162-0.12-0.146-0.25-0.284-0.381-0.421-0.038-0.04-0.071-0.083-0.11-0.122l-89.589-89.587c-0.018-0.018-0.038-0.033-0.057-0.051-0.156-0.153-0.317-0.301-0.486-0.44-0.055-0.045-0.113-0.083-0.169-0.126-0.138-0.107-0.275-0.214-0.42-0.311-0.051-0.034-0.105-0.062-0.156-0.095-0.156-0.099-0.312-0.197-0.475-0.284-0.036-0.019-0.074-0.035-0.111-0.053-0.181-0.094-0.365-0.183-0.554-0.262-0.024-0.01-0.049-0.017-0.074-0.027-0.202-0.081-0.406-0.157-0.616-0.221-0.027-0.008-0.054-0.013-0.081-0.021-0.206-0.06-0.415-0.115-0.628-0.158-0.063-0.013-0.128-0.018-0.192-0.029-0.177-0.031-0.354-0.062-0.536-0.08-0.247-0.025-0.497-0.038-0.748-0.038h-211.411c-4.142,0-7.5,3.358-7.5,7.5v390.998c0,4.143 3.358,7.5 7.5,7.5h221.719c4.142,0 7.5-3.357 7.5-7.5s-3.358-7.5-7.5-7.5zm-2.808-365.391l63.98,63.98h-63.98v-63.98z"/>
    <path d="m270.998,127.087v65.208c0,4.143 3.357,7.5 7.5,7.5s7.5-3.357 7.5-7.5v-65.208c0-4.143-3.357-7.5-7.5-7.5s-7.5,3.357-7.5,7.5z"/>
    <path d="m196.411,37.5c0-4.143-3.358-7.5-7.5-7.5h-151.411c-4.142,0-7.5,3.357-7.5,7.5v270.998c0,4.143 3.358,7.5 7.5,7.5s7.5-3.357 7.5-7.5v-263.498h143.911c4.142,0 7.5-3.357 7.5-7.5z"/>
    <path d="m308.498,240.998c-37.22,0-67.5,30.28-67.5,67.5s30.28,67.5 67.5,67.5 67.5-30.28 67.5-67.5-30.28-67.5-67.5-67.5zm0,120c-28.948,0-52.5-23.552-52.5-52.5s23.552-52.5 52.5-52.5 52.5,23.552 52.5,52.5-23.552,52.5-52.5,52.5z"/>
    <path d="M37.5,360.998c-4.142,0-7.5,3.357-7.5,7.5s3.358,7.5,7.5,7.5h167.106c4.142,0,7.5-3.357,7.5-7.5s-3.358-7.5-7.5-7.5H37.5z"/>
    <path d="m214.832,172.999c0-2.813-1.574-5.389-4.076-6.673l-98.665-50.625c-2.326-1.193-5.104-1.091-7.333,0.272-2.23,1.362-3.59,3.787-3.59,6.4v101.25c0,2.613 1.36,5.038 3.59,6.4 1.197,0.731 2.552,1.1 3.91,1.1 1.172,0 2.346-0.274 3.423-0.827l98.665-50.625c2.502-1.283 4.076-3.859 4.076-6.672zm-98.665,38.347v-76.693l74.736,38.347-74.736,38.346z"/>
  </g>
</svg>
