<?xml version='1.0' encoding='iso-8859-1'?>
<svg version="1.1" xmlns="http://www.w3.org/2000/svg" viewBox="0 0 470 470" xmlns:xlink="http://www.w3.org/1999/xlink" enable-background="new 0 0 470 470">
  <g>
    <path d="M16.105,219.443h50.842l18.252,36.506c1.27,2.54,3.867,4.146,6.708,4.146s5.438-1.605,6.708-4.146l18.253-36.506h3.724   c4.142,0,7.5-3.357,7.5-7.5s-3.358-7.5-7.5-7.5h-8.359c-2.841,0-5.438,1.604-6.708,4.146l-13.618,27.235L78.29,208.589   c-1.27-2.54-3.867-4.146-6.708-4.146H16.105c-0.609,0-1.105-0.495-1.105-1.104V16.105C15,15.496,15.496,15,16.105,15h151.604   c0.61,0,1.106,0.496,1.106,1.105v81.306c0,4.143,3.358,7.5,7.5,7.5s7.5-3.357,7.5-7.5V16.105C183.815,7.225,176.59,0,167.709,0   H16.105C7.225,0,0,7.225,0,16.105v187.233C0,212.219,7.225,219.443,16.105,219.443z"/>
    <path d="m91.908,30c-20.688,0-37.518,16.83-37.518,37.518s16.831,37.519 37.518,37.519 37.518-16.831 37.518-37.519-16.831-37.518-37.518-37.518zm0,60.036c-12.417,0-22.518-10.102-22.518-22.519 0-12.415 10.101-22.517 22.518-22.517s22.518,10.102 22.518,22.518c0,12.417-10.102,22.518-22.518,22.518z"/>
    <path d="m91.908,135.036c8.819,0 17.411,2.459 24.845,7.11 3.513,2.198 8.139,1.133 10.336-2.379s1.132-8.14-2.379-10.336c-9.823-6.146-21.166-9.396-32.802-9.396-34.137,0.001-61.908,27.773-61.908,61.908 0,4.143 3.358,7.5 7.5,7.5h83.092c4.142,0 7.5-3.357 7.5-7.5s-3.358-7.5-7.5-7.5h-74.993c3.601-22.311 22.996-39.407 46.309-39.407z"/>
    <path d="M453.896,0H302.291c-8.881,0-16.106,7.225-16.106,16.105v81.306c0,4.143,3.357,7.5,7.5,7.5s7.5-3.357,7.5-7.5V16.105   c0-0.609,0.496-1.105,1.106-1.105h151.604c0.609,0,1.104,0.496,1.104,1.105v187.233c0,0.609-0.495,1.104-1.104,1.104h-55.478   c-2.841,0-5.438,1.605-6.708,4.146l-13.617,27.235l-13.618-27.235c-1.271-2.541-3.867-4.146-6.708-4.146h-8.358   c-4.143,0-7.5,3.357-7.5,7.5s3.357,7.5,7.5,7.5h3.724l18.253,36.506c1.271,2.541,3.867,4.146,6.708,4.146s5.438-1.605,6.708-4.146   l18.253-36.506h50.842c8.88,0,16.104-7.225,16.104-16.104V16.105C470,7.225,462.775,0,453.896,0z"/>
    <path d="m378.093,30c-20.688,0-37.519,16.83-37.519,37.518s16.831,37.519 37.519,37.519 37.518-16.831 37.518-37.519-16.831-37.518-37.518-37.518zm0,60.036c-12.417,0-22.519-10.102-22.519-22.519 0-12.416 10.102-22.518 22.519-22.518 12.416,0 22.518,10.102 22.518,22.518-0.001,12.418-10.102,22.519-22.518,22.519z"/>
    <path d="m341.908,181.943c0,4.143 3.357,7.5 7.5,7.5h83.092c4.143,0 7.5-3.357 7.5-7.5 0-34.136-27.771-61.907-61.907-61.907-11.637,0-22.979,3.249-32.802,9.396-3.511,2.196-4.576,6.824-2.38,10.336 2.198,3.511 6.823,4.576 10.337,2.379 7.435-4.651 16.025-7.11 24.845-7.11 23.313,0 42.707,17.096 46.309,39.407h-74.993c-4.143-0.001-7.501,3.357-7.501,7.499z"/>
    <path d="m143.092,136.01v187.234c0,8.88 7.225,16.104 16.105,16.104h50.842l18.252,36.506c1.271,2.54 3.868,4.146 6.708,4.146 2.84,0 5.438-1.605 6.708-4.146l18.253-36.506h50.841c8.881,0 16.105-7.225 16.105-16.104v-187.234c0-8.88-7.225-16.104-16.105-16.104h-151.604c-8.88-0.001-16.105,7.224-16.105,16.104zm168.815,0v187.234c0,0.609-0.496,1.104-1.105,1.104h-55.476c-2.841,0-5.438,1.604-6.708,4.146l-13.618,27.235-13.617-27.235c-1.27-2.54-3.867-4.146-6.708-4.146h-55.477c-0.609,0-1.105-0.495-1.105-1.104v-187.234c0-0.609 0.496-1.104 1.105-1.104h151.604c0.609-0.001 1.105,0.494 1.105,1.104z"/>
    <path d="m235,224.941c20.687,0 37.518-16.831 37.518-37.519s-16.83-37.518-37.518-37.518c-20.688,0-37.518,16.83-37.518,37.518s16.83,37.519 37.518,37.519zm0-60.036c12.416,0 22.518,10.102 22.518,22.518 0,12.417-10.102,22.519-22.518,22.519-12.417,0-22.518-10.102-22.518-22.519-2.84217e-14-12.416 10.101-22.518 22.518-22.518z"/>
    <path d="m180.592,309.349h108.815c4.143,0 7.5-3.357 7.5-7.5 0-34.136-27.771-61.907-61.907-61.907-34.136,0-61.908,27.771-61.908,61.907-2.84217e-14,4.142 3.358,7.5 7.5,7.5zm54.408-54.408c23.312,0 42.707,17.096 46.309,39.407h-92.617c3.6-22.311 22.995-39.407 46.308-39.407z"/>
    <path d="m381.5,440.5c4.411,0 8-3.589 8-8s-3.589-8-8-8-8,3.589-8,8 3.589,8 8,8z"/>
    <path d="m340.5,440.5c4.411,0 8-3.589 8-8s-3.589-8-8-8-8,3.589-8,8 3.589,8 8,8z"/>
    <path d="m422.5,440.5c4.411,0 8-3.589 8-8s-3.589-8-8-8-8,3.589-8,8 3.589,8 8,8z"/>
    <path d="m462.5,395h-455c-4.142,0-7.5,3.357-7.5,7.5v60c0,4.143 3.358,7.5 7.5,7.5h455c4.143,0 7.5-3.357 7.5-7.5v-60c0-4.143-3.357-7.5-7.5-7.5zm-447.5,15h277.5v45h-277.5v-45zm440,45h-147.5v-45h147.5v45z"/>
  </g>
</svg>
