<?xml version="1.0" encoding="iso-8859-1"?>
<!-- Generator: Adobe Illustrator 19.0.0, SVG Export Plug-In . SVG Version: 6.00 Build 0)  -->
<svg version="1.1" id="Capa_1" xmlns="http://www.w3.org/2000/svg" xmlns:xlink="http://www.w3.org/1999/xlink" x="0px" y="0px"
	 viewBox="0 0 480 480" style="enable-background:new 0 0 480 480;" xml:space="preserve">
<g>
	<g>
		<rect x="232" y="400" width="16" height="16"/>
	</g>
</g>
<g>
	<g>
		<path d="M472,416h-8V128c0-17.673-14.327-32-32-32h-48V32c0-17.673-14.327-32-32-32H128c-17.673,0-32,14.327-32,32v64H48
			c-17.673,0-32,14.327-32,32v288H8c-4.418,0-8,3.582-8,8v24c0,17.673,14.327,32,32,32h416c17.673,0,32-14.327,32-32v-24
			C480,419.582,476.418,416,472,416z M112,32c0-8.837,7.163-16,16-16h224c8.837,0,16,7.163,16,16v32H112V32z M112,80h256v232
			c0,8.837-7.163,16-16,16H128c-8.837,0-16-7.163-16-16V80z M128,344h224c17.673,0,32-14.327,32-32V144h32v224H64V144h32v168
			C96,329.673,110.327,344,128,344z M32,128c0-8.837,7.163-16,16-16h48v16H56c-4.418,0-8,3.582-8,8v240c0,4.418,3.582,8,8,8h368
			c4.418,0,8-3.582,8-8V136c0-4.418-3.582-8-8-8h-40v-16h48c8.837,0,16,7.163,16,16v288H312c-2.12-0.002-4.155,0.839-5.656,2.336
			L292.688,432H187.312l-13.656-13.664c-1.501-1.497-3.536-2.338-5.656-2.336H32V128z M464,448c0,8.837-7.163,16-16,16H32
			c-8.837,0-16-7.163-16-16v-16h148.688l13.656,13.656c1.5,1.5,3.534,2.344,5.656,2.344h112c2.122,0,4.156-0.844,5.656-2.344
			L315.312,432H464V448z"/>
	</g>
</g>
<g>
	<g>
		<rect x="136" y="256" width="208" height="16"/>
	</g>
</g>
<g>
	<g>
		<rect x="136" y="288" width="192" height="16"/>
	</g>
</g>
<g>
	<g>
		<rect x="184" y="224" width="160" height="16"/>
	</g>
</g>
<g>
	<g>
		<rect x="128" y="32" width="16" height="16"/>
	</g>
</g>
<g>
	<g>
		<rect x="160" y="32" width="16" height="16"/>
	</g>
</g>
<g>
	<g>
		<rect x="192" y="32" width="16" height="16"/>
	</g>
</g>
<g>
	<g>
		<rect x="152" y="224" width="16" height="16"/>
	</g>
</g>
<g>
	<g>
		<path d="M212.8,134.4l-9.6-12.8l-32,24c-3.535,2.651-4.251,7.665-1.6,11.2c0.455,0.606,0.994,1.145,1.6,1.6l32,24l9.6-12.8
			L189.336,152L212.8,134.4z"/>
	</g>
</g>
<g>
	<g>
		<path d="M310.4,147.2c-0.455-0.606-0.994-1.145-1.6-1.6l-32-24l-9.6,12.8l23.464,17.6L267.2,169.6l9.6,12.8l32-24
			C312.335,155.749,313.051,150.735,310.4,147.2z"/>
	</g>
</g>
<g>
	<g>
		<rect x="196.925" y="144" transform="matrix(0.3715 -0.9284 0.9284 0.3715 9.7248 318.3653)" width="86.16" height="16"/>
	</g>
</g>
<g>
</g>
<g>
</g>
<g>
</g>
<g>
</g>
<g>
</g>
<g>
</g>
<g>
</g>
<g>
</g>
<g>
</g>
<g>
</g>
<g>
</g>
<g>
</g>
<g>
</g>
<g>
</g>
<g>
</g>
</svg>
